<?xml version="1.0" encoding="UTF-8" standalone="no"?>
<svg
   version="1.1"
   width="364.07111"
   height="197.99014"
   id="svg201"
   xmlns="http://www.w3.org/2000/svg"
   xmlns:svg="http://www.w3.org/2000/svg">
  <defs
     id="defs201" />
  <g
     id="g201"
     transform="translate(-364.9289,-76.009839)">
    <path
       d="m 0,0 c 10.56,0 21.12,0 32,0 0.33,8.91 0.66,17.82 1,27 1.98,-2.97 3.96,-5.94 6,-9 3,-4 3,-4 4.480469,-5.941406 C 45.705198,9.0446283 47.751891,5.9203348 49.800781,2.7851563 51,1 51,1 52,0 c 2.593593,-0.08851529 5.160397,-0.11525945 7.753906,-0.09765625 0.775447,0.0014149 1.550894,0.0028299 2.349839,0.0042877 2.48629,0.0056151 4.972492,0.01817007 7.458755,0.03086853 1.681639,0.0050131 3.36328,0.0095763 5.044922,0.01367188 C 78.738316,-0.03777913 82.869143,-0.02050445 87,0 85.657024,2.845182 84.13651,5.3353529 82.277344,7.8710937 81.475748,8.9708252 81.475748,8.9708252 80.657959,10.092773 79.806332,11.253413 79.806332,11.253413 78.9375,12.4375 73.513924,19.885427 68.181825,27.381547 63,35 c -0.761836,0.984844 -1.523672,1.969687 -2.308594,2.984375 -1.925665,2.858417 -1.925665,2.858417 -1.695312,5.898437 1.27126,3.947338 3.05047,7.379331 5.066406,10.992188 0.825696,1.520032 1.649883,3.040884 2.472656,4.5625 0.622859,1.146621 0.622859,1.146621 1.258301,2.316406 C 72.832558,71.134669 77.407006,80.770643 82,90.375 c 0.39832,0.827417 0.796641,1.654834 1.207031,2.507324 0.364805,0.768443 0.72961,1.536885 1.105469,2.328613 0.326133,0.683687 0.652266,1.367374 0.988281,2.071778 C 86,99 86,99 86,101 74.78,101 63.56,101 52,101 50.80375,98.2775 49.6075,95.555 48.375,92.75 45.449485,86.119794 42.38654,79.612524 39.03125,73.1875 38,71 38,71 38,69 c -3.065753,2.60493 -4.818303,4.135377 -5.659424,8.137939 -0.02356,1.720295 -0.02356,1.720295 -0.04761,3.475342 -0.02812,1.124466 -0.05624,2.248931 -0.08521,3.407471 -0.0067,1.416277 -0.01337,2.832554 -0.02026,4.291748 C 32.125625,92.829375 32.06375,97.34625 32,102 21.44,102 10.88,102 0,102 0,68.34 0,34.68 0,0 Z"
       fill="#9f9625"
       transform="translate(448,123)"
       id="path2" />
    <path
       d="M 0,0 C 2.5012439,2.1248662 4.2677211,4.224694 6,7 6.4073437,7.5349609 6.8146875,8.0699219 7.234375,8.6210938 11.69563,15.481037 10.243303,24.214304 10,32 c -9.9,0 -19.8,0 -30,0 -0.495,-4.455 -0.495,-4.455 -1,-9 -1.39685,-2.646987 -1.39685,-2.646987 -4,-4 -2.704497,-0.59985 -5.218167,-0.814544 -8,-1 -0.2475,1.2375 -0.495,2.475 -0.75,3.75 -0.139219,0.696094 -0.278438,1.392187 -0.421875,2.109375 -0.0041,2.277473 -0.0041,2.277473 1.679688,4.21875 3.133167,2.416173 6.418852,3.650545 10.117187,4.921875 1.442793,0.523204 2.885502,1.046641 4.328125,1.570312 2.317852,0.824435 4.639166,1.630814 6.96875,2.421875 C -2.3677788,40.126803 5.6487842,45.66017 10,54 13.709391,63.09138 13.617084,76.535142 10.234375,85.757812 6.2015347,93.083288 0.11986363,99.528112 -8,102 c -12.971258,3.25702 -27.0067,3.93277 -39,-2.5 -8.923918,-5.623856 -13.744893,-13.73468 -17,-23.5 -0.135904,-4.669678 -0.04287,-9.32738 0,-14 8.91,0 17.82,0 27,0 0.33,3.63 0.66,7.26 1,11 0.99,1.32 1.98,2.64 3,4 0,0.66 0,1.32 0,2 4.018433,-0.249005 7.792038,-0.5286 11.5625,-2 2.043791,-2.843535 2.260483,-5.210489 2.043457,-8.67334 -0.403099,-2.382558 -0.403099,-2.382558 -2.097412,-3.753418 C -26.641293,61.556643 -31.780164,59.491297 -37.4375,57.625 -48.067383,53.890314 -55.902886,49.467288 -61,39 -63.51154,31.465379 -63.296581,21.034815 -60.882812,13.523438 -59.709538,11.223289 -58.50727,9.0940286 -57,7 c 0.66,0 1.32,0 2,0 0.20625,-0.556875 0.4125,-1.11375 0.625,-1.6875 3.922776,-6.5973964 11.390937,-10.0138357 18.59375,-11.890625 C -22.502717,-8.5922844 -11.182412,-7.8662482 0,0 Z"
       fill="#9f9722"
       transform="translate(429,124)"
       id="path3" />
    <path
       d="m 0,0 c 10.23,0 20.46,0 31,0 0,26.07 0,52.14 0,79 13.2,0 26.4,0 40,0 0,8.25 0,16.5 0,25 -23.43,0 -46.86,0 -71,0 C 0,69.68 0,35.36 0,0 Z"
       fill="#8d9421"
       transform="translate(584,121)"
       id="path4" />
    <path
       d="m 0,0 c 10.23,0 20.46,0 31,0 0,26.07 0,52.14 0,79 12.87,0 25.74,0 39,0 0,8.25 0,16.5 0,25 -23.1,0 -46.2,0 -70,0 C 0,69.68 0,35.36 0,0 Z"
       fill="#919824"
       transform="translate(659,121)"
       id="path5" />
    <path
       d="m 0,0 c 9.9,0 19.8,0 30,0 0,34.32 0,68.64 0,104 -9.9,0 -19.8,0 -30,0 C 0,69.68 0,35.36 0,0 Z"
       fill="#a09723"
       transform="translate(541,121)"
       id="path6" />
    <path
       d="m 0,0 c 3.25,0.375 3.25,0.375 6.125,2.4375 2.5954841,3.5878751 2.5497346,5.6052071 2.125,9.9375 1.65,0 3.3,0 5,0 0,-2.64 0,-5.28 0,-8 -0.99,-0.33 -1.98,-0.66 -3,-1 0,-0.99 0,-1.98 0,-3 20.79,0 41.58,0 63,0 0.495,2.475 0.495,2.475 1,5 -1.65,0 -3.3,0 -5,0 0,6.6 0,13.2 0,20 -1.65,-0.33 -3.3,-0.66 -5,-1 0,-3.3 0,-6.6 0,-10 -2.31,0 -4.62,0 -7,0 0.495,1.60875 0.495,1.60875 1,3.25 1,3.75 1,3.75 1,7.75 -3,0 -3,0 -4.386719,-1.285156 -2.408746,-3.29123 -3.55738,-5.34217 -4.175781,-9.464844 0.5625,-3.25 0.5625,-3.25 2,-5.1875 3.821519,-1.5845321 7.481125,-1.2979639 11.5625,-1.0625 0,-0.99 0,-1.98 0,-3 -6.27,0 -12.54,0 -19,0 0,2.97 0,5.94 0,9 -1.5,2.5625 -1.5,2.5625 -3,4 0.78375,0.309375 1.5675,0.61875 2.375,0.9375 2.625,1.0625 2.625,1.0625 4.625,2.0625 -0.33,1.32 -0.66,2.64 -1,4 -1.667969,0.789062 -1.667969,0.789062 -4,1 C 41.636719,24.460937 41.636719,24.460937 38.9375,21.75 38.033867,20.870859 37.130234,19.991719 36.199219,19.085937 34.25,16.375 34.25,16.375 34.457031,13.539063 34.718711,12.824922 34.980391,12.110781 35.25,11.375 c 1.32,0 2.64,0 4,0 0,-1.98 0,-3.96 0,-6 -4.455,0.495 -4.455,0.495 -9,1 0,6.6 0,13.2 0,20 -4,-1 -4,-1 -6,-2 0,-6.27 0,-12.54 0,-19 -1.98,0.33 -3.96,0.66 -6,1 0.33,0.33 0.66,0.66 1,1 0.08632,1.3426741 0.107065,2.689743 0.09766,4.035156 -0.0032,0.808887 -0.0064,1.617774 -0.0098,2.451172 -0.0084,0.850137 -0.01676,1.700274 -0.02539,2.576172 -0.0045,0.854004 -0.009,1.708008 -0.01367,2.587891 -0.01182,2.116566 -0.02976,4.233096 -0.04883,6.349609 -4,0 -4,0 -6,-1 0,-2.31 0,-4.62 0,-7 -1.65,0 -3.3,0 -5,0 -0.33,1.32 -0.66,2.64 -1,4 -3.7869517,-0.540993 -5.6274597,-2.034325 -8,-5 0,-1.32 0,-2.64 0,-4 1.32,0 2.64,0 4,0 -0.2556132,-2.343121 -0.5927077,-4.678434 -1,-7 -0.66,-0.33 -1.32,-0.66 -2,-1 0,1.65 0,3.3 0,5 -0.99,0 -1.98,0 -3,0 -2,-3 -2,-3 -1.6875,-5.625 C -3.4817523,0.44832609 -3.4751278,0.47388106 0,0 Z"
       fill="#4f4f72"
       transform="translate(379.75,247.625)"
       id="path7" />
    <path
       d="M 0,0 C 4.7600229,3.9666858 8.0742385,6.8314774 8.8828125,13.226563 9.183207,19.054215 7.9646863,23.3901 4.625,28.1875 c -4.50615806,4.506158 -9.2222163,6.070237 -15.5,6.3125 -5.03251,-0.151734 -8.447219,-1.360913 -12.164062,-4.894531 -3.015463,-3.279851 -5.106484,-5.828893 -5.335938,-10.417969 -0.0825,-1.11375 -0.165,-2.2275 -0.25,-3.375 0.376351,-5.457095 2.04789,-9.1557549 5.5,-13.375 C -15.863204,-3.5039698 -8.2592619,-4.4355295 0,0 Z"
       fill="#c82128"
       transform="translate(563.375,78.8125)"
       id="path8" />
    <path
       d="m 0,0 c 2.31,0 4.62,0 7,0 0,26.07 0,52.14 0,79 12.87,0 25.74,0 39,0 0,7.92 0,15.84 0,24 -22.77,0 -45.54,0 -69,0 0,-10.56 0,-21.12 0,-32 0.33,0 0.66,0 1,0 0.33,10.23 0.66,20.46 1,31 19.47,0 38.94,0 59,0 -0.33,-6.27 -0.66,-12.54 -1,-19 -4.062544,-0.02698 -8.124909,-0.04683 -12.1875,-0.0625 -1.150488,-0.0084 -2.300977,-0.01676 -3.486328,-0.02539 -1.111817,-0.0032 -2.223633,-0.0064 -3.369141,-0.0098 -1.531769,-0.0079 -1.531769,-0.0079 -3.094482,-0.01587 C 9.3674556,83.047946 9.3674556,83.047946 5,86 3.02,85.67 1.04,85.34 -1,85 -0.67,56.95 -0.34,28.9 0,0 Z"
       fill="#5c711e"
       transform="translate(683,121)"
       id="path10" />
    <path
       d="m 0,0 c 0.69609375,0.06960937 1.3921875,0.13921875 2.109375,0.2109375 1.2375,0.12375 2.475,0.2475 3.75,0.375 -1.3026992,2.7362339 -2.7424629,5.1881501 -4.5039063,7.6523438 -0.48919917,0.6879565 -0.97839839,1.375913 -1.48242182,2.0847167 -0.52013672,0.726145 -1.04027348,1.45229 -1.57617188,2.20044 -1.0850972,1.525713 -2.1697279,3.051758 -3.2539062,4.578124 -0.5377002,0.756036 -1.0754004,1.512071 -1.6293946,2.291016 -2.205576,3.112613 -4.3845702,6.24312 -6.5541992,9.380859 -0.680625,0.983555 -1.36125,1.96711 -2.0625,2.980469 -0.639375,0.934571 -1.27875,1.869141 -1.9375,2.832031 -0.763125,0.986133 -1.52625,1.972266 -2.3125,2.988282 -1.921579,2.855499 -1.921579,2.855499 -1.691406,5.894531 1.27126,3.947338 3.05047,7.37933 5.066406,10.992187 0.825696,1.520032 1.649883,3.040885 2.472656,4.5625 0.622859,1.146622 0.622859,1.146622 1.258301,2.316407 5.039101,9.380762 9.6135487,19.016737 14.206543,28.621093 0.3983203,0.827417 0.7966406,1.654834 1.2070313,2.507325 0.547207,1.152663 0.547207,1.152663 1.1054687,2.328613 0.4891992,1.02553 0.4891992,1.02553 0.9882812,2.071777 0.6992188,1.717285 0.6992188,1.717285 0.6992188,3.717288 -2.31,0 -4.62,0 -7,0 -10.03125,-20.062503 -10.03125,-20.062503 -11.018311,-22.036868 -0.657454,-1.314746 -1.315172,-2.62936 -1.973144,-3.943847 -1.710848,-3.418763 -3.41658,-6.839937 -5.114014,-10.265381 -0.693909,-1.397186 -1.387918,-2.794322 -2.082031,-4.191407 -0.331208,-0.669345 -0.662417,-1.338691 -1.003662,-2.02832 -2.176163,-4.366524 -4.503465,-8.599079 -7.093994,-12.737305 -0.93751,-2.356581 -0.485075,-3.407319 0.285156,-5.796875 1.551871,-2.45446 3.137083,-4.820344 4.8125,-7.1875 0.484124,-0.693999 0.968247,-1.387998 1.467041,-2.103027 1.566589,-2.241423 3.142436,-4.476087 4.720459,-6.709473 0.537861,-0.762963 1.075723,-1.525927 1.629883,-2.312011 4.199548,-5.956708 4.199548,-5.956708 6.308838,-8.927002 0.4726828,-0.666204 0.9453659,-1.332407 1.4323727,-2.018799 0.6769996,-0.9467358 0.6769996,-0.9467358 1.3676758,-1.9125977 0.8192936,-1.188499 1.6042856,-2.401657 2.3466797,-3.6396484 C -2.6159248,0.7160378 -2.6159248,0.7160378 0,0 Z"
       fill="#0f0e0a"
       transform="translate(528.14062,123.41406)"
       id="path11" />
    <path
       d="M 0,0 C -0.0825,1.0725 -0.165,2.145 -0.25,3.25 -0.34805175,6.925227 -0.34805175,6.925227 1.5390625,9.046875 4.6465545,11.513138 7.9204474,12.726533 11.625,14 c 1.442793,0.523204 2.885502,1.046641 4.328125,1.570313 2.317852,0.824434 4.639166,1.630813 6.96875,2.421874 C 31.632221,21.126803 39.648784,26.66017 44,35 47.709391,44.09138 47.617084,57.535142 44.234375,66.757812 40.201535,74.083288 34.119864,80.528112 26,83 14.749972,85.824825 -0.07753137,87.6911 -10.480469,81.53125 -12.698108,80.073453 -14.863038,78.573042 -17,77 c 0.99,-0.495 0.99,-0.495 2,-1 2.017233,0.964764 4.016123,1.968384 6,3 4.5095255,1.385073 9.00926011,1.222582 13.6875,1.25 0.8604492,0.02062 1.7208984,0.04125 2.6074219,0.0625 C 14.982171,80.358844 22.817526,78.845723 29,74 37.619644,64.2781 38.829455,55.670736 38.46875,43.070312 38.060242,36.854186 36.485479,32.429988 32,28 25.068015,21.99228 16.630236,18.944534 7.875,16.625 2.8234635,15.146307 -1.4575169,12.974493 -5,9 -5.6875,5.8125 -5.6875,5.8125 -5,3 -3.3650892,0.77057613 -2.7980893,0 0,0 Z"
       fill="#0b0e08"
       transform="translate(395,143)"
       id="path12" />
    <path
       d="m 0,0 c 1.98,0 3.96,0 6,0 0,33.99 0,67.98 0,103 -1.98,0 -3.96,0 -6,0 C 0,69.01 0,35.02 0,0 Z"
       fill="#111007"
       transform="translate(565,121)"
       id="path13" />
    <path
       d="M 0,0 1.2421875,3.6132813 C 1.7862357,5.1797648 2.3305188,6.7461669 2.875,8.3125 -0.19017908,9.7260561 -3.1454758,5.7862354 -4.2203237,6.4111696 -5.9878733,7.4388521 -5.8601335,13.713731 -4.1658676,14.601291 -2.931502,15.247927 -0.94310589,7.0364206 0.88368811,5.6892415 1.9299396,4.9176777 2.9231833,10.861166 3.6914063,10.693359 l 0.8007812,2.294922 0.7299805,2.110596 C 6.0376542,17.271323 6.0376542,17.271323 8,20 v 3 h 3 v 2 H -1 v -2 h 2 l -1,-3 -8,-1 -1,4 h 3 v 2 h -23 l 1,-3 c 0.144921,-1.406649 0.246289,-2.818113 0.316406,-4.230469 l 0.126953,-2.43164 0.119141,-2.525391 0.130859,-2.560547 C -27.200685,8.1681557 -27.09985,6.084099 -27,4 h -2 V 1 h 12 v 2 h -3 v 20 l 6,-1 c 1.44352,-2.501484 2.352735,-4.498254 3.25,-7.1875 l 0.734375,-2.001953 c 1.1108745,-3.0579238 2.100981,-6.1075993 3,-9.2363282 L -6,1 C -3,0 -3,0 0,0 Z"
       fill="#3d3e66"
       transform="translate(609,247)"
       id="path14" />
    <path
       d="M 0,0 C 3.8173447,2.4085627 6.5578365,4.6735095 8,9 8.413689,13.248267 8.4540017,16.900838 6.8125,20.875 -0.31000321,32.513338 -17.274863,22.270115 -15.732611,10.373772 -17.970626,8.8989009 -8.2710934,1.0292519 -8.0596783,6.3463005 -6.7356848,39.64448 4.873862,18.514823 -2.0145961,5.6647958 -3.5071069,2.0164362 -16.678967,12.847478 -16,9 -12.451489,2.0344038 -7.9258652,-1.2298756 0,0 Z"
       fill="#323364"
       id="path15"
       transform="translate(548,247)" />
    <path
       d="m 0,0 c 2.8199272,1.821203 4.5034548,3.0069096 6,6 0.1743185,2.1203983 0.2670907,4.247933 0.3125,6.375 l 0.1132812,3.460938 C 5.9169043,19.6175 4.9359033,20.666614 2,23 c -3.5524581,2.449971 -6.7677304,2.371252 -11,2 -2.738013,-1.182324 -4.602185,-2.453428 -6.041487,-4.384615 C -15.787663,19.614201 -16.419648,18.435607 -17,17 -17.234826,12.363965 -10.980949,6.6304799 -6.7433709,20.121692 -5.7297829,23.34866 0.29280538,12.846011 0.35774152,11.986321 0.4227203,11.126067 1.4653194,4.2427926 -2.1222824,4.3975173 -7.7777948,4.6414261 -16.313011,5.300607 -15.8125,4.0625 -11.085082,-1.3169762 -6.7147217,-1.8246526 0,0 Z"
       fill="#3b3b66"
       transform="translate(676,248)"
       id="path16" />
    <path
       d="m 0,0 c 10.56,0 21.12,0 32,0 0.33,8.91 0.66,17.82 1,27 1.98,-2.97 3.96,-5.94 6,-9 3,-4 3,-4 4.480469,-5.941406 C 45.705198,9.0446283 47.751891,5.9203348 49.800781,2.7851563 51,1 51,1 52,0 c 2.593593,-0.08851529 5.160397,-0.11525945 7.753906,-0.09765625 0.775447,0.0014149 1.550894,0.0028299 2.349839,0.0042877 2.48629,0.0056151 4.972492,0.01817007 7.458755,0.03086853 1.681639,0.0050131 3.36328,0.0095763 5.044922,0.01367188 C 78.738316,-0.03777913 82.869143,-0.02050445 87,0 86.67,0.66 86.34,1.32 86,2 83.36,1.67 80.72,1.34 78,1 77.632617,2.0576758 77.632617,2.0576758 77.257812,3.1367188 75.825325,6.3976304 74.004781,8.9613412 71.875,11.8125 71.150547,12.78832 70.426094,13.764141 69.679687,14.769531 69.125391,15.505586 68.571094,16.241641 68,17 66.68,16.67 65.36,16.34 64,16 64.45375,15.401875 64.9075,14.80375 65.375,14.1875 66.632959,12.494093 67.829847,10.755229 69,9 69.66,9 70.32,9 71,9 71.33,6.69 71.66,4.38 72,2 69.853525,2.1134438 67.707794,2.2410635 65.5625,2.375 63.770059,2.4794141 63.770059,2.4794141 61.941406,2.5859375 60.970742,2.7225781 60.000078,2.8592188 59,3 58.67,3.66 58.34,4.32 58,5 56.865625,5.268125 55.73125,5.53625 54.5625,5.8125 53.386875,6.204375 52.21125,6.59625 51,7 49.801618,9.3285446 49.801618,9.3285446 49,12 48.113125,12.845625 47.22625,13.69125 46.3125,14.5625 45.549375,15.366875 44.78625,16.17125 44,17 c 0.04498,2.275231 0.04498,2.275231 1,4 -0.61875,0.103125 -1.2375,0.20625 -1.875,0.3125 C 40.634735,21.875254 40.634735,21.875254 39,25 c 0.495,0.99 0.495,0.99 1,2 -0.9375,2.625 -0.9375,2.625 -2,5 -0.495,-0.99 -0.495,-0.99 -1,-2 -0.61875,0.495 -1.2375,0.99 -1.875,1.5 C 33,33 33,33 31,33 31,22.44 31,11.88 31,1 c -2.64,0 -5.28,0 -8,0 0,13.86 0,27.72 0,42 -1.32,-1.32 -2.64,-2.64 -4,-4 0.33,-0.66 0.66,-1.32 1,-2 0.82597,-2.779554 1.128182,-5.265726 1.132812,-8.160156 0.0019,-0.789148 0.0039,-1.578296 0.0059,-2.391358 -0.0045,-0.828625 -0.009,-1.657251 -0.01367,-2.510986 -0.0019,-0.846028 -0.0039,-1.692056 -0.0059,-2.563721 C 21.076709,15.209981 20.770176,9.1201467 20,3 19.01,3.33 18.02,3.66 17,4 16.34,3.67 15.68,3.34 15,3 10.71,3 6.42,3 2,3 1.67,17.19 1.34,31.38 1,46 0.67,46 0.34,46 0,46 0,30.82 0,15.64 0,0 Z"
       fill="#e1a75f"
       transform="translate(448,123)"
       id="path17" />
    <path
       d="M 0,0 C 2.5008666,2.1245457 4.2705309,4.223106 6,7 6.4073437,7.5465625 6.8146875,8.093125 7.234375,8.65625 11.491216,15.303919 10.33054,23.434305 10,31 8.02,31 6.04,31 4,31 3.9020312,30.082187 3.8040625,29.164375 3.703125,28.21875 2.4784188,18.167713 0.98207175,10.712197 -7,4 -12.118897,0.11404142 -16.48976,-1.8423125 -23,-2 -23.930703,-2.038672 -24.861406,-2.077344 -25.820312,-2.1171875 -34.198637,-2.310039 -42.316256,-1.5857471 -50,2 c 2.548942,-4.7580242 7.148433,-6.2834155 12,-8 13.390047,-3.4940752 26.687237,-1.9579436 38,6 z"
       fill="#100b08"
       transform="translate(429,124)"
       id="path18" />
    <path
       d="M 0,0 C 1.65,0 3.3,0 5,0 5,26.4 5,52.8 5,80 3.35,80 1.7,80 0,80 0,53.6 0,27.2 0,0 Z"
       fill="#070501"
       transform="translate(609,121)"
       id="path19" />
    <path
       d="M 0,0 C 1.65,0 3.3,0 5,0 5,26.07 5,52.14 5,79 3.35,79 1.7,79 0,79 0,52.93 0,26.86 0,0 Z"
       fill="#030101"
       transform="translate(684,121)"
       id="path20" />
    <path
       d="m 0,0 c 7.92,0 15.84,0 24,0 0,8.91 0,17.82 0,27 -0.33,0 -0.66,0 -1,0 C 23,18.75 23,10.5 23,2 15.08,2.495 15.08,2.495 7,3 7.33,3.66 7.66,4.32 8,5 6.02,5.99 6.02,5.99 4,7 4.0104736,7.8623828 4.0209473,8.7247656 4.0317383,9.6132813 4.2098857,26.697394 4.0967972,43.664055 2.7993164,60.707031 1.751634,74.820727 1.4735526,88.79342 1,103 c 23.1,0 46.2,0 70,0 0,0.33 0,0.66 0,1 -23.43,0 -46.86,0 -71,0 C 0,69.68 0,35.36 0,0 Z"
       fill="#ccc087"
       transform="translate(584,121)"
       id="path21" />
    <path
       d="m 0,0 c 3.6040247,-0.8640797 6.4349363,-1.115976 10,0 3.379833,4.000729 5.696138,8.3150522 8,13 0.33,-3.63 0.66,-7.26 1,-11 -0.99,0 -1.98,0 -3,0 0,-0.66 0,-1.32 0,-2 3.63,0 7.26,0 11,0 0,0.66 0,1.32 0,2 -0.99,0 -1.98,0 -3,0 0,7.26 0,14.52 0,22 -7,0 -7,0 -8.62085,-1.285156 C 15.038757,22.12832 14.698364,21.541797 14.347656,20.9375 13.96416,20.305859 13.580664,19.674219 13.185547,19.023437 12.814941,18.355703 12.444336,17.687969 12.0625,17 11.664824,16.332266 11.267148,15.664531 10.857422,14.976563 9.8819231,13.331143 8.9377973,11.667195 8,10 c 0,3.63 0,7.26 0,11 0.99,0.33 1.98,0.66 3,1 0,0.66 0,1.32 0,2 -3.63,0 -7.26,0 -11,0 0,-0.66 0,-1.32 0,-2 0.99,0 1.98,0 3,0 C 3,15.4 3,8.8 3,2 2.01,2 1.02,2 0,2 0,1.34 0,0.68 0,0 Z"
       fill="#383967"
       transform="translate(684,248)"
       id="path22" />
    <path
       d="M 0,0 C 0.71027344,-0.00515625 1.4205469,-0.0103125 2.1523438,-0.015625 9.2315229,0.27391198 15.817593,4.6875423 20.625,9.6914063 21.75,11.25 21.75,11.25 23,14 c -0.33,0.99 -0.66,1.98 -1,3 -0.66,-0.33 -1.32,-0.66 -2,-1 0,-0.99 0,-1.98 0,-3 -1.98,0.99 -1.98,0.99 -4,2 -0.66,-1.32 -1.32,-2.64 -2,-4 -0.99,0 -1.98,0 -3,0 C 10.505,8.525 10.505,8.525 10,6 7.2373571,5.4026718 4.8396723,5 2,5 0.9790625,4.505 0.9790625,4.505 -0.0625,4 -4.3759933,2.5315767 -8.4862441,2.504313 -13,3 c -2.60775,1.2646181 -2.60775,1.2646181 -5,3 -1.51527,0.4364638 -3.03687,0.8512557 -4.5625,1.25 -3.469131,1.0891459 -5.069013,2.0032603 -6.875,5.1875 -0.515625,1.175625 -1.03125,2.35125 -1.5625,3.5625 -1.0625,2.375 -1.0625,2.375 -2,4 -0.99,0.33 -1.98,0.66 -3,1 -0.0871,3.10399 -0.140423,6.207665 -0.1875,9.3125 -0.02514,0.881074 -0.05027,1.762148 -0.07617,2.669922 -0.0097,0.847558 -0.01934,1.695117 -0.0293,2.568359 -0.01571,0.780286 -0.03142,1.560572 -0.04761,2.364502 C -35.913317,40.530596 -34.899667,41.22931 -33,43 c 0.6875,3.1875 0.6875,3.1875 1,6 1.32,0.33 2.64,0.66 4,1 0,0.99 0,1.98 0,3 -4.963767,-1.950051 -7.210717,-5.464098 -9.589844,-10.09375 -1.815864,-4.371228 -1.943832,-8.531647 -1.910156,-13.21875 6.45e-4,-0.835071 0.0013,-1.670142 0.002,-2.530518 C -39.338408,20.54291 -37.917096,15.441965 -34,10 c 0.66,0 1.32,0 2,0 0.268125,-0.61875 0.53625,-1.2375 0.8125,-1.875 C -29.144576,4.4692421 -25.802277,3.2943921 -22,2 -14.630962,0.02228025 -7.598484,-0.29590758 0,0 Z"
       fill="#d39749"
       transform="translate(406,121)"
       id="path23" />
    <path
       d="M 0,0 C 1.98,0 3.96,0 6,0 6.4099219,1.0969922 6.8198438,2.1939844 7.2421875,3.3242188 7.7864289,4.7786569 8.3307013,6.2330833 8.875,7.6875 9.1444141,8.4087305 9.4138281,9.1299609 9.6914063,9.8730469 10.218435,11.280599 10.749261,12.686736 11.28418,14.091309 11.88839,15.7024 12.45273,17.32836 13.007813,18.957031 13.335234,19.631211 13.662656,20.305391 14,21 c 0.99,0.33 1.98,0.66 3,1 0,0.66 0,1.32 0,2 -4.29,0 -8.58,0 -13,0 0.33,-0.66 0.66,-1.32 1,-2 0.66,0 1.32,0 2,0 -0.33,-0.99 -0.66,-1.98 -1,-3 -2.64,0 -5.28,0 -8,0 -0.33,0.99 -0.66,1.98 -1,3 0.99,0 1.98,0 3,0 0,0.66 0,1.32 0,2 -3.3,0 -6.6,0 -10,0 0.66,-1.32 1.32,-2.64 2,-4 2.8549264,-6.59554 5.5336473,-13.2499822 8,-20 z"
       fill="#414267"
       transform="translate(472,248)"
       id="path24" />
    <path
       d="m 0,0 c 0.66,0.33 1.32,0.66 2,1 0.024659,3.9693099 0.04284,7.9385903 0.054932,11.907959 0.00504,1.351245 0.01187,2.702484 0.020508,4.053711 0.012085,1.938534 0.017259,3.877108 0.022217,5.815674 0.00524,1.16781 0.010474,2.33562 0.015869,3.538818 C 2,29 2,29 1,30 c 29.7,0.495 29.7,0.495 60,1 0,-4.95 0,-9.9 0,-15 0.33,-2.31 0.66,-4.62 1,-7 2.31,0 4.62,0 7,0 0,7.59 0,15.18 0,23 C 45.9,32 22.8,32 -1,32 -1,2 -1,2 0,0 Z"
       fill="#5d8320"
       transform="translate(586,192)"
       id="path25" />
    <path
       d="M 0,0 C 2.4375,0.5 2.4375,0.5 4,1 4,3.31 4,5.62 4,8 2.68,8 1.36,8 0,8 -0.33,7.01 -0.66,6.02 -1,5 -3.97,4.505 -3.97,4.505 -7,4 c 0.1231064,1.933472 0.1231064,1.933472 1,4 2.2361072,1.4670576 2.2361072,1.4670576 4.9375,2.5625 C 3.7966102,12.694915 3.7966102,12.694915 6,16 6.4375,18.4375 6.4375,18.4375 6,21 2.6458777,24.17759 0.31798209,25.925397 -4.3125,26.1875 -7.7598143,26.012213 -9.9302291,25.488374 -13,24 c 0,-2.31 0,-4.62 0,-7 1.65,0.33 3.3,0.66 5,1 0.33,0.99 0.66,1.98 1,3 1.98,0.33 3.96,0.66 6,1 C -1.1233931,20.093621 -1.1233931,20.093621 -2,18 -4.2620857,16.245947 -4.2620857,16.245947 -7,14.8125 -11.983819,12.016181 -11.983819,12.016181 -13,11 -13.467532,5.6233766 -13.467532,5.6233766 -11.6875,3.25 -7.4504372,0.11143499 -5.2625132,-0.27697438 0,0 Z"
       fill="#404068"
       transform="translate(525,247)"
       id="path26" />
    <path
       d="m 0,0 c 3.25,0.375 3.25,0.375 6.125,2.4375 2.5954841,3.5878751 2.5497346,5.6052071 2.125,9.9375 1.65,0 3.3,0 5,0 0,-2.64 0,-5.28 0,-8 1.98,0.99 3.96,1.98 6,3 0,5.94 0,11.88 0,18 -4,0 -4,0 -6,-1 0,-2.31 0,-4.62 0,-7 -1.65,0 -3.3,0 -5,0 -0.33,1.32 -0.66,2.64 -1,4 -3.7869517,-0.540993 -5.6274597,-2.034325 -8,-5 0,-1.32 0,-2.64 0,-4 1.32,0 2.64,0 4,0 -0.2556132,-2.343121 -0.5927077,-4.678434 -1,-7 -0.66,-0.33 -1.32,-0.66 -2,-1 0,1.65 0,3.3 0,5 -0.99,0 -1.98,0 -3,0 -2,-3 -2,-3 -1.6875,-5.625 C -3.4817523,0.44832609 -3.4751278,0.47388106 0,0 Z"
       fill="#3a3b64"
       transform="translate(379.75,247.625)"
       id="path27" />
    <path
       d="M 0,0 C 0.99,0.33 1.98,0.66 3,1 3,3.64 3,6.28 3,9 1.68,9 0.36,9 -1,9 -1.33,7.35 -1.66,5.7 -2,4 c -1.65,0 -3.3,0 -5,0 0.1640403,1.929067 0.1640403,1.929067 1,4 2.0043076,1.4595325 2.0043076,1.4595325 4.4375,2.5625 C 1.7840155,12.200842 2.8644609,12.796691 5,16 5.4375,18.4375 5.4375,18.4375 5,21 1.6147917,24.207039 -0.70311311,25.927951 -5.375,26.1875 -8.6706752,26.017034 -10.283683,25.738443 -13,24 c 0,-2.31 0,-4.62 0,-7 1.32,0.33 2.64,0.66 4,1 0.33,1.32 0.66,2.64 1,4 1.98,0 3.96,0 6,0 -0.1144885,-1.92626 -0.1144885,-1.92626 -1,-4 -2.3161241,-1.499427 -2.3161241,-1.499427 -5.0625,-2.75 -4.688089,-2.646285 -4.688089,-2.646285 -5.773438,-5.2734375 C -14.010024,6.3743042 -13.226609,4.2832613 -11,1.5 -6.9522008,-0.52389962 -4.5042985,-0.36324988 0,0 Z"
       fill="#404068"
       transform="translate(504,247)"
       id="path28" />
    <path
       d="m 0,0 c 7.92,0 15.84,0 24,0 0,12.87 0,25.74 0,39 -0.66,0 -1.32,0 -2,0 -0.02506,-0.978721 -0.05011,-1.957441 -0.07593,-2.96582 -0.09431,-3.637987 -0.194474,-7.275793 -0.296386,-10.913575 -0.04326,-1.573199 -0.08494,-3.146442 -0.125,-4.719726 -0.05792,-2.26397 -0.121553,-4.52772 -0.18628,-6.791504 -0.01671,-0.70119 -0.03343,-1.402379 -0.05064,-2.124817 C 21.16649,8.1976618 20.991873,5.1485799 20,2 17.353757,2.1402181 14.708154,2.2868978 12.0625,2.4375 10.930381,2.4964746 10.930381,2.4964746 9.7753906,2.5566406 6.0805581,2.4403802 6.0805581,2.4403802 3,4 2.8467001,5.6334998 2.7616414,7.2734436 2.7033691,8.9130859 2.6643297,9.980611 2.6252902,11.048136 2.5850678,12.14801 2.547972,13.331511 2.5108762,14.515011 2.4726563,15.734375 2.4313307,16.973466 2.3900052,18.212557 2.3474274,19.489197 1.8534553,35.267436 1.6629739,51.051292 1.4677734,66.83551 1.4163939,70.93334 1.3613331,75.03112 1.3066406,79.128906 1.2009533,87.085896 1.0994794,95.04293 1,103 c 9.57,0 19.14,0 29,0 0,0.33 0,0.66 0,1 -9.9,0 -19.8,0 -30,0 C 0,69.68 0,35.36 0,0 Z"
       fill="#b1a86f"
       transform="translate(541,121)"
       id="path30" />
    <path
       d="m 0,0 c 7.59,0 15.18,0 23,0 0,2.64 0,5.28 0,8 -1.32,0 -2.64,0 -4,0 0,-1.65 0,-3.3 0,-5 -1.32,0 -2.64,0 -4,0 0,6.27 0,12.54 0,19 0.99,0 1.98,0 3,0 0,0.66 0,1.32 0,2 C 13.71,24 9.42,24 5,24 5,23.34 5,22.68 5,22 5.66,21.67 6.32,21.34 7,21 7.495,12.09 7.495,12.09 8,3 6.68,3 5.36,3 4,3 4,4.65 4,6.3 4,8 2.68,8 1.36,8 0,8 0,5.36 0,2.72 0,0 Z"
       fill="#333463"
       transform="translate(620,248)"
       id="path31" />
    <path
       d="M 0,0 C 1.3125,2.5625 1.3125,2.5625 2,6 1.2059375,6.94875 0.411875,7.8975 -0.40625,8.875 -4.3844046,14.103293 -3.7814885,20.121489 -3.8125,26.4375 -3.837637,27.645996 -3.862773,28.854492 -3.888672,30.099609 -3.9473107,33.066734 -3.9837627,36.032391 -4,39 -6.31,39 -8.62,39 -11,39 -12.711509,11.580752 -12.711509,11.580752 -6.625,4.3125 -2.6,0 -2.6,0 0,0 Z"
       fill="#070904"
       transform="translate(483,185)"
       id="path32" />
    <path
       d="M 0,0 C 0.86882813,0.00644531 1.7376562,0.01289063 2.6328125,0.01953125 4.875,0.1875 4.875,0.1875 6.875,1.1875 c 0,2.31 0,4.62 0,7 -1.32,0.33 -2.64,0.66 -4,1 -0.33,-1.65 -0.66,-3.3 -1,-5 -1.98,0 -3.96,0 -6,0 -0.9286707,2.7860122 -1.1634222,4.6106609 -1.1875,7.5 -0.01418,0.773438 -0.028359,1.546875 -0.042969,2.34375 0.093853,2.453051 0.093853,2.453051 2.2304687,5.15625 2.43693311,0.36416 2.43693311,0.36416 5.125,0.1875 0.9100781,-0.02707 1.8201563,-0.05414 2.7578125,-0.08203 0.6986719,-0.0348 1.3973437,-0.06961 2.1171875,-0.105469 0.33,0.99 0.66,1.98 1,3 -8.14606742,3.910112 -8.14606742,3.910112 -13,3 -3.2143169,-2.167179 -6.2475657,-4.495132 -7.9999997,-8 C -13.702174,12.456569 -13.559166,9.0403266 -11.375,4.75 -7.8899348,0.78089796 -5.2288433,-0.08584668 0,0 Z"
       fill="#3d3e66"
       transform="translate(570.125,247.8125)"
       id="path33" />
    <path
       d="m 0,0 c 2.31,0 4.62,0 7,0 0.149776,4.1073201 0.2578718,8.2135557 0.3295898,12.322998 0.029934,1.393837 0.070698,2.787489 0.1230469,4.180664 0.2984706,8.15527 0.146875,14.403298 -5.055664,21.074707 C 1.7054712,38.282076 1.7054712,38.282076 1,39 0.67,39 0.34,39 0,39 0,26.13 0,13.26 0,0 Z"
       fill="#050101"
       transform="translate(472,124)"
       id="path34" />
    <path
       d="m 0,0 c 5.9255564,7.7289865 5.0458699,17.555155 4,27 -1.1267504,4.440366 -3.11517161,8.434324 -6,12 -0.99,0.33 -1.98,0.66 -3,1 -0.33,0.99 -0.66,1.98 -1,3 -7.656051,5.052994 -14.883162,6.346462 -23.9375,6.3125 -0.855293,0.01611 -1.710586,0.03223 -2.591797,0.04883 C -38.409557,49.365813 -42.587011,48.267371 -48,46 -48.910078,45.86207 -49.820156,45.724141 -50.757812,45.582031 -53.884537,44.77039 -54.9396,43.225117 -56.875,40.6875 -57.491172,39.907617 -58.107344,39.127734 -58.742187,38.324219 -60,36 -60,36 -59.695312,33.707031 -59.465859,33.143711 -59.236406,32.580391 -59,32 c 1.9375,1.125 1.9375,1.125 4,3 0.75,3.1875 0.75,3.1875 1,6 1.98,0 3.96,0 6,0 0.33,0.99 0.66,1.98 1,3 0.710273,0.132773 1.420547,0.265547 2.152344,0.402344 0.919101,0.176601 1.838203,0.353203 2.785156,0.535156 0.916523,0.174023 1.833047,0.348047 2.777344,0.527344 C -37,46 -37,46 -36,47 c 2.186395,0.07259 4.375004,0.08374 6.5625,0.0625 1.197539,-0.009 2.395078,-0.01805 3.628906,-0.02734 C -24.41834,47.017754 -24.41834,47.017754 -23,47 c 0.495,-0.99 0.495,-0.99 1,-2 1.010625,-0.12375 2.02125,-0.2475 3.0625,-0.375 C -14.413936,43.906974 -10.573016,42.97054 -7,40 c 1.2778503,-2.75027 1.5926594,-4.944945 2,-8 1.65,0 3.3,0 5,0 C 2.3047923,23.645128 4.4538512,12.873146 0,5 -0.125,2.25 -0.125,2.25 0,0 Z"
       fill="#4d7d17"
       transform="translate(430,175)"
       id="path35" />
    <path
       d="m 0,0 c 0.33,0.99 0.66,1.98 1,3 0.66,0 1.32,0 2,0 0,6.27 0,12.54 0,19 -1.65,-0.33 -3.3,-0.66 -5,-1 0,-3.3 0,-6.6 0,-10 -2.31,0 -4.62,0 -7,0 0.33,1.0725 0.66,2.145 1,3.25 1,3.75 1,3.75 1,7.75 -3,0 -3,0 -4.386719,-1.285156 C -13.795465,17.423614 -14.944099,15.372674 -15.5625,11.25 -15,8 -15,8 -13.292969,6.3085937 -10.54327,4.7393446 -8.889681,4.6885652 -5.75,4.8125 -4.8579688,4.83957 -3.9659375,4.866641 -3.046875,4.894531 -2.3714063,4.9293359 -1.6959375,4.9641406 -1,5 -0.67,3.35 -0.34,1.7 0,0 Z"
       fill="#32345e"
       transform="translate(446,251)"
       id="path36" />
    <path
       d="m 0,0 c 3.96,0 7.92,0 12,0 0,0.66 0,1.32 0,2 -0.99,0 -1.98,0 -3,0 0,6.6 0,13.2 0,20 2.97,-0.66 5.94,-1.32 9,-2 3.0625,0.875 3.0625,0.875 5,2 0,0.66 0,1.32 0,2 -7.59,0 -15.18,0 -23,0 0.495,-1.485 0.495,-1.485 1,-3 0.1449212,-1.406649 0.2462893,-2.818113 0.3164062,-4.230469 0.041895,-0.802441 0.083789,-1.604883 0.1269532,-2.43164 C 1.4826758,13.504512 1.5219922,12.671133 1.5625,11.8125 1.6056836,10.96752 1.6488672,10.122539 1.6933594,9.2519531 1.7993152,7.1681557 1.9001502,5.084099 2,3 1.34,3 0.68,3 0,3 0,2.01 0,1.02 0,0 Z"
       fill="#32345c"
       transform="translate(580,248)"
       id="path37" />
    <path
       d="m 0,0 c 10.56,0 21.12,0 32,0 0.495,14.355 0.495,14.355 1,29 -0.66,0 -1.32,0 -2,0 0,-9.24 0,-18.48 0,-28 -2.64,0 -5.28,0 -8,0 0,13.86 0,27.72 0,42 -1.32,-1.32 -2.64,-2.64 -4,-4 0.33,-0.66 0.66,-1.32 1,-2 0.82597,-2.779554 1.128182,-5.265726 1.132812,-8.160156 0.0019,-0.789148 0.0039,-1.578296 0.0059,-2.391358 -0.0045,-0.828625 -0.009,-1.657251 -0.01367,-2.510986 -0.0019,-0.846028 -0.0039,-1.692056 -0.0059,-2.563721 C 21.076709,15.209981 20.770176,9.1201467 20,3 19.01,3.33 18.02,3.66 17,4 16.34,3.67 15.68,3.34 15,3 10.71,3 6.42,3 2,3 1.67,17.19 1.34,31.38 1,46 0.67,46 0.34,46 0,46 0,30.82 0,15.64 0,0 Z"
       fill="#d0a468"
       transform="translate(448,123)"
       id="path39" />
    <path
       d="m 0,0 c 3.96,0 7.92,0 12,0 -0.33,0.99 -0.66,1.98 -1,3 -0.66,0 -1.32,0 -2,0 0,5.94 0,11.88 0,18 0.99,0.33 1.98,0.66 3,1 0,0.66 0,1.32 0,2 -4.29,0 -8.58,0 -13,0 0.33,-0.66 0.66,-1.32 1,-2 0.66,0 1.32,0 2,0 C 2,15.4 2,8.8 2,2 1.34,2 0.68,2 0,2 0,1.34 0,0.68 0,0 Z"
       fill="#323361"
       transform="translate(645,248)"
       id="path40" />
    <path
       d="m 0,0 c 2.31,0 4.62,0 7,0 0,0.66 0,1.32 0,2 1.65,0 3.3,0 5,0 0,0.33 0,0.66 0,1 C 9.69,3.33 7.38,3.66 5,4 4.505,3.01 4.505,3.01 4,2 3.34,3.32 2.68,4.64 2,6 2,5.01 2,4.02 2,3 c -6.27,0 -12.54,0 -19,0 0,2.97 0,5.94 0,9 -1.5,2.5625 -1.5,2.5625 -3,4 0.78375,0.309375 1.5675,0.61875 2.375,0.9375 C -15,18 -15,18 -13,19 c -0.33,1.32 -0.66,2.64 -1,4 -1.671875,0.792969 -1.671875,0.792969 -4,1 -2.578125,-1.949219 -2.578125,-1.949219 -5.25,-4.6875 -0.892031,-0.890742 -1.784062,-1.781484 -2.703125,-2.699219 C -28,14 -28,14 -28,10 c 1.98,0 3.96,0 6,0 C -22.02062,8.865625 -22.04125,7.73125 -22.0625,6.5625 -22,3 -22,3 -21,2 c 1.559485,-0.1568625 3.125427,-0.2507664 4.691406,-0.3164063 0.944239,-0.041895 1.888477,-0.083789 2.861328,-0.1269531 C -12.454043,1.5173246 -11.46082,1.4780076 -10.4375,1.4375 -9.4404102,1.394316 -8.4433203,1.351133 -7.4160156,1.3066406 -4.9441585,1.200197 -2.4721969,1.0981807 0,1 0,0.67 0,0.34 0,0 Z"
       fill="#393a64"
       transform="translate(442,250)"
       id="path41" />
    <path
       d="m 0,0 c 3.5409881,-0.70534774 6.4898875,-0.94111711 10,0 3.103828,3.2702958 5.269742,6.8398856 7,11 -0.33,0.66 -0.66,1.32 -1,2 -0.99,-0.66 -1.98,-1.32 -3,-2 -0.66,1.32 -1.32,2.64 -2,4 -0.99,-1.65 -1.98,-3.3 -3,-5 0,3.63 0,7.26 0,11 0.99,0.33 1.98,0.66 3,1 0,0.66 0,1.32 0,2 -3.63,0 -7.26,0 -11,0 0,-0.66 0,-1.32 0,-2 0.99,0 1.98,0 3,0 C 3,15.4 3,8.8 3,2 2.01,2 1.02,2 0,2 0,1.34 0,0.68 0,0 Z"
       fill="#3a3b5e"
       transform="translate(684,248)"
       id="path42" />
    <path
       d="m 0,0 c 2.4448986,-0.02762597 4.8836382,-0.01301636 7.328125,0.03125 1.8124232,4.0188515 3.335016,7.6111067 4,12 0.99,0 1.98,0 3,0 0.33,0.66 0.66,1.32 1,2 2.549414,0.312414 5.003615,0.513034 7.5625,0.625 1.066377,0.05801 1.066377,0.05801 2.154297,0.117188 1.760627,0.09453 3.52188,0.17727 5.283203,0.257812 0,-3.3 0,-6.6 0,-10 0.66,0 1.32,0 2,0 0,3.3 0,6.6 0,10 1.98,0 3.96,0 6,0 0,0.33 0,0.66 0,1 -9.9,0 -19.8,0 -30,0 -0.33,-2.97 -0.66,-5.94 -1,-9 -1.3968501,-2.6469872 -1.3968501,-2.6469872 -4,-4 -2.7044972,-0.5998502 -5.2181667,-0.8145444 -8,-1 -0.33,0.66 -0.66,1.32 -1,2 -2.0625,1.125 -2.0625,1.125 -4,2 -0.671667,2.743039 -0.671667,2.743039 0,6 2.4322499,2.368243 5.1326695,4.195118 8,6 -2.8923432,0.826384 -4.8874243,1 -8,1 -0.12375,-0.639375 -0.2475,-1.27875 -0.375,-1.9375 -0.20625,-0.680625 -0.4125,-1.36125 -0.625,-2.0625 -0.66,-0.33 -1.32,-0.66 -2,-1 -0.66,0.99 -1.32,1.98 -2,3 -0.598165,-5.622749 0.515734,-9.3301818 3.460937,-14.1757812 C -9.671875,1.03125 -9.671875,1.03125 -6.484375,-0.03125 -4.323182,0.00417939 -2.1613356,0.02527878 0,0 Z"
       fill="#bb9748"
       transform="translate(400.67187,139.96875)"
       id="path43" />
    <path
       d="m 0,0 c 2.6850724,2.6850724 4.0419142,5.8762346 5.6875,9.25 0.7120175,1.445422 1.4242618,2.890732 2.1367187,4.335938 0.3601319,0.733154 0.7202637,1.466308 1.0913086,2.221679 1.0414608,2.10543 2.0998067,4.201207 3.1665037,6.293945 0.323313,0.636475 0.646626,1.27295 0.979737,1.928711 0.89458,1.7589 1.79135,3.516687 2.688232,5.274414 C 17,32 17,32 17,34 c -8.91,0 -17.82,0 -27,0 -1.340625,-2.908125 -2.68125,-5.81625 -4.0625,-8.8125 -0.42676,-0.912415 -0.853521,-1.824829 -1.293213,-2.764893 -0.327341,-0.723405 -0.654683,-1.446811 -0.991943,-2.192138 -0.340393,-0.738391 -0.680786,-1.476782 -1.031494,-2.237549 C -18,16 -18,16 -17,13 c 2.979037,2.979037 4,5.802853 4,10 0.99,0.33 1.98,0.66 3,1 0,0.66 0,1.32 0,2 1.32,0.66 2.64,1.32 4,2 0,1.65 0,3.3 0,5 6.27,0 12.54,0 19,0 C 10.7667,27.097708 8.5278232,22.234834 5,17 4.136045,14.961544 3.3863102,12.907571 2.6601563,10.816406 2.011974,8.8931979 2.011974,8.8931979 0.8125,6.8125 -0.23755451,4.4700707 -0.140882,2.535876 0,0 Z"
       fill="#5b8f1a"
       transform="translate(510,190)"
       id="path44" />
    <path
       d="m 0,0 c 0.33,0 0.66,0 1,0 0,26.07 0,52.14 0,79 12.87,0 25.74,0 39,0 0,0.33 0,0.66 0,1 -1.98,0 -3.96,0 -6,0 0,3.63 0,7.26 0,11 -0.33,0 -0.66,0 -1,0 C 32.505,86.545 32.505,86.545 32,82 20.12,81.67 8.24,81.34 -4,81 -2.02,80.505 -2.02,80.505 0,80 0,53.6 0,27.2 0,0 Z"
       fill="#85906c"
       transform="translate(689,121)"
       id="path45" />
    <path
       d="m 0,0 c 7.2318692,-0.49029622 7.2318692,-0.49029622 10.9375,1.875 3.351072,3.45262 3.273909,5.7646833 3.375,10.5 0.03738,1.142109 0.07477,2.284219 0.113281,3.460938 C 13.91714,19.615749 12.954891,20.686523 10,23 7.2912067,24.354397 4.9906673,24.065015 2,24 1.67,23.34 1.34,22.68 1,22 1.61875,21.896875 2.2375,21.79375 2.875,21.6875 5.3652648,21.124746 5.3652648,21.124746 7,18 7.354823,15.360281 7.354823,15.360281 7.3125,12.5 7.3292578,11.540938 7.3460156,10.581875 7.3632812,9.59375 6.9442352,6.6018517 6.2206503,5.9218293 4,4 4,3.34 4,2.68 4,2 2.68,2 1.36,2 0,2 0,1.34 0,0.68 0,0 Z"
       fill="#353661"
       transform="translate(668,248)"
       id="path46" />
    <path
       d="m 0,0 c 7.59,0 15.18,0 23,0 0.04593,5.4811669 0.08575,10.961665 0.109863,16.442871 0.01005,1.864281 0.0237,3.728546 0.04102,5.592774 0.02428,2.680866 0.03561,5.361524 0.04443,8.04248 0.01032,0.832432 0.02065,1.664864 0.03128,2.522522 1.51e-4,0.780507 3.02e-4,1.561014 4.58e-4,2.365173 0.0044,0.683949 0.0089,1.367897 0.01346,2.072571 C 23,39 23,39 21,43 20.67,29.47 20.34,15.94 20,2 14.06,2.33 8.12,2.66 2,3 1.67,9.6 1.34,16.2 1,23 0.67,23 0.34,23 0,23 0,15.41 0,7.82 0,0 Z"
       fill="#d49b4a"
       transform="translate(660,121)"
       id="path47" />
    <path
       d="M 0,0 C 1.32,0 2.64,0 4,0 4.0373828,0.67546875 4.0747656,1.3509375 4.1132812,2.046875 4.1790234,2.9389063 4.2447656,3.8309375 4.3125,4.75 4.3705078,5.6317187 4.4285156,6.5134375 4.4882812,7.421875 5.0669005,10.337056 6.1525949,11.721699 8,14 c 0,0.66 0,1.32 0,2 1.7700771,0.08114 3.541221,0.139255 5.3125,0.1875 0.986133,0.0348 1.972266,0.06961 2.988281,0.105469 2.700902,-0.05716 2.700902,-0.05716 4.429688,-1.617188 C 21.878906,13.159844 22.945052,11.582422 24,10 c 0.33,1.98 0.66,3.96 1,6 -0.66,0 -1.32,0 -2,0 -0.268125,0.639375 -0.53625,1.27875 -0.8125,1.9375 C 21,20 21,20 18,21 c -0.66,-0.66 -1.32,-1.32 -2,-2 -2.108208,0.318518 -2.108208,0.318518 -4,1 0,-0.66 0,-1.32 0,-2 -0.734766,0.22043 -1.469531,0.440859 -2.2265625,0.667969 C 7,19 7,19 4.7265625,17.988281 2.3592106,16.10056 0.64644955,14.557429 -1,12 -1.3825973,7.8431323 -0.85575583,4.0715258 0,0 Z"
       fill="#719223"
       transform="translate(388,187)"
       id="path50" />
    <path
       d="M 0,0 C 1.98,0 3.96,0 6,0 6,7.59 6,15.18 6,23 4.02,23 2.04,23 0,23 0,15.41 0,7.82 0,0 Z"
       fill="#10150a"
       transform="translate(723,201)"
       id="path51" />
    <path
       d="M 0,0 C 1.98,0 3.96,0 6,0 6,7.59 6,15.18 6,23 4.02,23 2.04,23 0,23 0,15.41 0,7.82 0,0 Z"
       fill="#0e100e"
       transform="translate(649,201)"
       id="path52" />
    <path
       d="m 0,0 c 3.4791494,-0.02887814 6.9582683,-0.04675687 10.4375,-0.0625 1.489834,-0.01256836 1.489834,-0.01256836 3.009766,-0.02539062 0.944238,-0.0032227 1.888476,-0.0064453 2.861328,-0.0097656 1.311822,-0.0078552 1.311822,-0.0078552 2.650146,-0.01586914 C 21,0 21,0 22,1 c 0.08859,2.7389409 0.115235,5.4525327 0.09766,8.1914063 -0.0014,0.8198387 -0.0028,1.6396777 -0.0043,2.4843597 -0.0056,2.628948 -0.01817,5.257812 -0.03087,7.886734 -0.005,1.777994 -0.0096,3.555988 -0.01367,5.333984 C 22.037778,29.264355 22.020503,33.632163 22,38 c -0.66,0 -1.32,0 -2,0 -0.02506,-0.978721 -0.05011,-1.957441 -0.07593,-2.96582 -0.09431,-3.637987 -0.194474,-7.275793 -0.296386,-10.913575 -0.04326,-1.573199 -0.08494,-3.146442 -0.125,-4.719726 -0.05792,-2.26397 -0.121553,-4.52772 -0.18628,-6.791504 -0.01671,-0.70119 -0.03343,-1.402379 -0.05064,-2.124817 C 19.16649,7.1976618 18.991873,4.1485799 18,1 15.353757,1.1402181 12.708154,1.2868978 10.0625,1.4375 8.9303809,1.4964746 8.9303809,1.4964746 7.7753906,1.5566406 4.0805581,1.4403802 4.0805581,1.4403802 1,3 0.8415735,5.0708472 0.74875578,7.1467803 0.68359375,9.2226563 0.64169922,10.482715 0.59980469,11.742773 0.55664062,13.041016 0.51682404,14.381507 0.47711186,15.722002 0.4375,17.0625 0.39431958,18.406915 0.35070544,19.751317 0.30664062,21.095703 0.20014642,24.397023 0.0981354,27.698422 0,31 -0.33,31 -0.66,31 -1,31 -1.024696,26.906585 -1.042858,22.813199 -1.054932,18.719727 -1.059962,17.326815 -1.066791,15.933909 -1.07544,14.541016 -1.087552,12.540388 -1.092705,10.539721 -1.097657,8.5390625 -1.102897,7.3345947 -1.108131,6.1301269 -1.113526,4.8891602 -1,2 -1,2 0,0 Z"
       fill="#d49b48"
       transform="translate(543,122)"
       id="path53" />
    <path
       d="M 0,0 C 2,2 2,2 2.1352539,5.3481445 2.0929106,6.776719 2.0392455,8.2049859 1.9765625,9.6328125 1.9515366,10.384648 1.9265106,11.136484 1.9007263,11.911102 1.8184491,14.316188 1.7218914,16.720463 1.625,19.125 1.5667682,20.753873 1.5094647,22.382779 1.453125,24.011719 1.3146041,28.008454 1.1567979,32.003773 1,36 7.6,36 14.2,36 21,36 20.7525,33.091875 20.7525,33.091875 20.5,30.125 19.836758,21.272168 19.462414,13.564353 22,5 c 0.33,0 0.66,0 1,0 0,10.56 0,21.12 0,32 C 15.41,37 7.82,37 0,37 0,24.79 0,12.58 0,0 Z"
       fill="#638c21"
       transform="translate(542,187)"
       id="path54" />
    <path
       d="M 0,0 C 0.88365234,0.00451172 1.7673047,0.00902344 2.6777344,0.01367188 4.8476856,0.02540134 7.0176017,0.04333505 9.1875,0.0625 c 0.495,1.98 0.495,1.98 1,4 C 9.5734229,4.0823193 8.9593457,4.1021387 8.3266602,4.1225586 5.4882462,4.219038 2.6504484,4.328208 -0.1875,4.4375 -1.1530078,4.4684375 -2.1185156,4.499375 -3.1132813,4.53125 -11.220585,4.8577186 -19.36985,5.5892634 -26.8125,9.0625 c 2.548942,-4.7580242 7.148433,-6.2834155 12,-8 C -9.9427409,-0.30138225 -5.0135866,-0.048603 0,0 Z"
       fill="#1b1819"
       transform="translate(405.8125,116.9375)"
       id="path55" />
    <path
       d="M 0,0 C -0.0825,1.0725 -0.165,2.145 -0.25,3.25 -0.3467853,6.9225043 -0.3467853,6.9225043 1.5273437,9.0429688 4.6878842,11.544439 8.0461334,12.772267 11.8125,14.0625 c 1.382091,0.489247 2.763608,0.980122 4.144531,1.472656 0.669829,0.237349 1.339658,0.474698 2.029785,0.719239 C 21.04466,17.386902 24.016278,18.685602 27,20 25.289062,21.105469 25.289062,21.105469 23,22 20.773437,21.425781 20.773437,21.425781 18.375,20.3125 14.891392,18.770491 11.565738,17.564771 7.875,16.625 2.8234635,15.146307 -1.4575169,12.974493 -5,9 -5.6875,5.8125 -5.6875,5.8125 -5,3 -3.3650892,0.77057613 -2.7980893,0 0,0 Z"
       fill="#221a0f"
       transform="translate(395,143)"
       id="path56" />
    <path
       d="m 0,0 c 8.91,0 17.82,0 27,0 -1.32,0.33 -2.64,0.66 -4,1 0,2.31 0,4.62 0,7 C 22.67,7.01 22.34,6.02 22,5 21.01,4.67 20.02,4.34 19,4 19,3.01 19,2.02 19,1 14.38,1.66 9.76,2.32 5,3 4.67,4.65 4.34,6.3 4,8 3.79375,8.825 3.5875,9.65 3.375,10.5 2.7970079,14.353281 3.7835623,17.350687 5,21 4.67,21.99 4.34,22.98 4,24 0.31022925,15.497485 -0.08647195,9.4254429 0,0 Z"
       fill="#879540"
       transform="translate(365,186)"
       id="path57" />
    <path
       d="M 0,0 C 2.6116916,1.7360663 4.8095612,3.7629561 7,6 6.67,6.66 6.34,7.32 6,8 4.68,7.34 3.36,6.68 2,6 2.33,6.66 2.66,7.32 3,8 2.9129796,9.7123369 2.7590284,11.421754 2.5625,13.125 2.4606641,14.035078 2.3588281,14.945156 2.2539063,15.882813 2.1701172,16.581484 2.0863281,17.280156 2,18 c 0.66,0 1.32,0 2,0 -0.33,0.99 -0.66,1.98 -1,3 -2.0625,0.6875 -2.0625,0.6875 -4,1 0.33,-0.99 0.66,-1.98 1,-3 C 0.11854556,17.169436 0.17517233,15.334357 0.1875,13.5 0.2016797,12.540938 0.2158594,11.581875 0.2304687,10.59375 0.18755111,7.7625386 0.18755111,7.7625386 -2,5 -3.65,4.67 -5.3,4.34 -7,4 -7.33,8.29 -7.66,12.58 -8,17 -8.33,17 -8.66,17 -9,17 -9.33,13.37 -9.66,9.74 -10,6 -11.32,5.67 -12.64,5.34 -14,5 -9.027453,0.94344853 -6.5986519,-0.75722235 0,0 Z"
       fill="#3f3f63"
       transform="translate(548,247)"
       id="path58" />
    <path
       d="m 0,0 c 0,0.33 0,0.66 0,1 -1.65,0.33 -3.3,0.66 -5,1 1.2554156,2.5108311 2.5006349,2.8712545 5,4 -2.31,0 -4.62,0 -7,0 0.33,1.0725 0.66,2.145 1,3.25 C -5,13 -5,13 -5,17 -8,17 -8,17 -9.3867188,15.714844 -11.795465,12.423614 -12.944099,10.372674 -13.5625,6.25 -13,3 -13,3 -11.5625,1.0625 -7.7409815,-0.52203208 -4.0813751,-0.23546395 0,0 Z"
       fill="#424369"
       transform="translate(444,256)"
       id="path59" />
    <path
       d="M 0,0 C 0.33,0.66 0.66,1.32 1,2 2.32,2 3.64,2 5,2 5,8.6 5,15.2 5,22 1,21 1,21 0,20 c -0.08669432,-1.488719 -0.10703494,-2.981445 -0.09765625,-4.472656 0.0032227,-0.899121 0.0064453,-1.798242 0.0097656,-2.72461 C -0.07951172,11.857207 -0.07113281,10.91168 -0.0625,9.9375 -0.05798828,8.9881055 -0.05347656,8.0387109 -0.04882812,7.0605469 -0.0370011,4.7069693 -0.02052025,2.3535152 0,0 Z"
       fill="#404069"
       transform="translate(405,252)"
       id="path60" />
    <path
       d="m 0,0 c 0.33,0 0.66,0 1,0 0.812781,5.0002288 1.1920246,9.8671737 1.1875,14.9375 6.445e-4,0.778352 0.00129,1.556704 0.00195,2.358643 C 2.0769869,30.877719 0.94332095,44.456069 0,58 -0.33,58 -0.66,58 -1,58 -1.025446,51.025724 -1.042907,44.05146 -1.054932,37.077148 -1.059952,34.706701 -1.066761,32.336257 -1.07544,29.96582 -1.087629,26.550122 -1.093257,23.134466 -1.097657,19.71875 -1.105397,18.140152 -1.105397,18.140152 -1.113297,16.529663 -1.11372,10.920879 -0.83850436,5.5474752 0,0 Z"
       fill="#a09837"
       transform="translate(586,136)"
       id="path61" />
    <path
       d="M 0,0 H 2 C 2.6740831,1.2669151 3.339005,2.5387075 4,3.8125 L 5.125,5.9570312 C 6,8 6,8 6,11 h 3 v 2 H -3 v -2 h 2 L -2,6 h -8 C -8,4 -8,4 -4.375,3.875 L -1,4 Z"
       fill="#3c3c64"
       transform="translate(611,259)"
       id="path62" />
    <path
       d="M 0,0 C 1.98,0 3.96,0 6,0 6.99,2.97 7.98,5.94 9,9 8.01,8.67 7.02,8.34 6,8 6.33,7.34 6.66,6.68 7,6 5.68,6.33 4.36,6.66 3,7 c 0.66,2.64 1.32,5.28 2,8 -1.98,0 -3.96,0 -6,0 0,-1.65 0,-3.3 0,-5 -0.66,0 -1.32,0 -2,0 0.99,-3.3 1.98,-6.6 3,-10 z"
       fill="#42436b"
       transform="translate(472,248)"
       id="path63" />
    <path
       d="M 0,0 C 0.33,0 0.66,0 1,0 1.1327734,1.0712109 1.2655469,2.1424219 1.4023437,3.2460938 1.5805056,4.6432577 1.7589032,6.0403916 1.9375,7.4375 2.0245117,8.1445508 2.1115234,8.8516016 2.2011719,9.5800781 2.3821619,13.08818 2.3821619,13.08818 4,16 4.66,10.72 5.32,5.44 6,0 c 0.33,0 0.66,0 1,0 0,6.27 0,12.54 0,19 0.99,0 1.98,0 3,0 0,0.66 0,1.32 0,2 -4.29,0 -8.58,0 -13,0 0,-0.66 0,-1.32 0,-2 0.66,-0.33 1.32,-0.66 2,-1 0.495,-8.91 0.495,-8.91 1,-18 z"
       fill="#4f5071"
       transform="translate(628,251)"
       id="path64" />
    <path
       d="m 0,0 c 3.6531667,1.2497676 4.7806584,1.6709875 7,5 0.3849989,1.6554953 0.7279314,3.3222433 1,5 0.99,0 1.98,0 3,0 0.33,0.66 0.66,1.32 1,2 2.549414,0.312414 5.003615,0.513034 7.5625,0.625 1.066377,0.05801 1.066377,0.05801 2.154297,0.117188 C 23.477424,12.836718 25.238677,12.919458 27,13 27,9.7 27,6.4 27,3 c 0.66,0 1.32,0 2,0 0,3.3 0,6.6 0,10 1.98,0 3.96,0 6,0 0,0.33 0,0.66 0,1 C 25.1,14 15.2,14 5,14 4.67,11.03 4.34,8.06 4,5 2.1175397,1.9938559 2.1175397,1.9938559 0,0 Z"
       fill="#b5984f"
       transform="translate(404,142)"
       id="path65" />
    <path
       d="m 0,0 c 3.96,0 7.92,0 12,0 -0.33,0.99 -0.66,1.98 -1,3 -0.66,0 -1.32,0 -2,0 0,5.94 0,11.88 0,18 0.99,0.33 1.98,0.66 3,1 0,0.66 0,1.32 0,2 -4.29,0 -8.58,0 -13,0 0.66,-0.66 1.32,-1.32 2,-2 2.31,0 4.62,0 7,0 C 7.67,15.4 7.34,8.8 7,2 5.68,2.33 4.36,2.66 3,3 3,8.94 3,14.88 3,21 2.67,21 2.34,21 2,21 2,14.73 2,8.46 2,2 1.34,2 0.68,2 0,2 0,1.34 0,0.68 0,0 Z"
       fill="#62637f"
       transform="translate(645,248)"
       id="path66" />
    <path
       d="m 0,0 c 2.6850724,2.6850724 4.0419142,5.8762346 5.6875,9.25 0.7120175,1.445422 1.4242618,2.890732 2.1367187,4.335938 0.5401978,1.099731 0.5401978,1.099731 1.0913086,2.221679 1.0414608,2.10543 2.0998067,4.201207 3.1665037,6.293945 0.323313,0.636475 0.646626,1.27295 0.979737,1.928711 0.89458,1.7589 1.79135,3.516687 2.688232,5.274414 C 17,32 17,32 17,34 15.35,34 13.7,34 12,34 11.938125,33.030625 11.87625,32.06125 11.8125,31.0625 11.229928,27.008769 9.5307247,24.097242 7.4765625,20.601562 5.7403625,17.542543 4.2000032,14.42554 2.6875,11.25 2.1757422,10.182656 1.6639844,9.1153125 1.1367187,8.015625 0.02755426,5.0730993 -0.24723713,3.1048384 0,0 Z"
       fill="#698124"
       transform="translate(510,190)"
       id="path67" />
    <path
       d="m 0,0 c 3.63,0 7.26,0 11,0 0,0.66 0,1.32 0,2 C 10.01,2 9.02,2 8,2 8,9.26 8,16.52 8,24 7.67,24 7.34,24 7,24 7,18.72 7,13.44 7,8 6.34,8 5.68,8 5,8 4.67,10.64 4.34,13.28 4,16 3.34,15.34 2.68,14.68 2,14 2.0234375,11.179688 2.0234375,11.179688 2.375,7.875 2.4858594,6.7792969 2.5967188,5.6835937 2.7109375,4.5546875 2.8063281,3.7116406 2.9017188,2.8685938 3,2 2.01,2 1.02,2 0,2 0,1.34 0,0.68 0,0 Z"
       fill="#5f5f7d"
       transform="translate(700,248)"
       id="path68" />
    <path
       d="m 0,0 c 0.99,0.33 1.98,0.66 3,1 -2.10268034,3.0843493 -4.2074043,6.1672987 -6.3125,9.25 -0.5949023,0.872695 -1.1898047,1.745391 -1.8027344,2.644531 -0.5768554,0.844336 -1.1537109,1.688672 -1.7480468,2.558594 -0.5289185,0.775049 -1.057837,1.550098 -1.6027832,2.348633 C -9.9331609,19.904215 -11.448904,21.958977 -13,24 c -0.99,-0.33 -1.98,-0.66 -3,-1 1,-2 1,-2 3,-4 0.300352,-0.75668 0.600703,-1.513359 0.910156,-2.292969 C -10.890935,13.729096 -9.3821677,11.328953 -7.5625,8.6875 -6.9656641,7.8044922 -6.3688281,6.9214844 -5.7539062,6.0117187 -5.1751172,5.3478516 -4.5963281,4.6839844 -4,4 c 0.99,0 1.98,0 3,0 0.33,-1.32 0.66,-2.64 1,-4 z"
       fill="#bc933f"
       transform="translate(512,140)"
       id="path69" />
    <path
       d="M 0,0 C 7.1826087,-0.48695652 7.1826087,-0.48695652 10.9375,1.75 13.908832,4.991453 13.908832,4.991453 14,8 13.0625,10.75 13.0625,10.75 12,13 11.34,12.67 10.68,12.34 10,12 9.34,13.32 8.68,14.64 8,16 7.9439258,15.077676 7.9439258,15.077676 7.8867187,14.136719 7.8209766,13.328477 7.7552344,12.520234 7.6875,11.6875 7.6004883,10.486738 7.6004883,10.486738 7.5117187,9.2617188 6.9123443,6.6125752 5.9637319,5.7952616 4,4 4,3.34 4,2.68 4,2 2.68,2 1.36,2 0,2 0,1.34 0,0.68 0,0 Z"
       fill="#3a3b65"
       transform="translate(668,248)"
       id="path70" />
    <path
       d="m 0,0 c 5.9158249,7.7162934 4.9537802,17.563468 4,27 -1.170589,3.785996 -2.6156534,6.840741 -5,10 -1.65,-0.33 -3.3,-0.66 -5,-1 0.33,-1.32 0.66,-2.64 1,-4 1.65,0 3.3,0 5,0 C 2.3047923,23.645128 4.4538512,12.873146 0,5 -0.125,2.25 -0.125,2.25 0,0 Z"
       fill="#688a1c"
       transform="translate(430,175)"
       id="path71" />
    <path
       d="M 0,0 C 6.165297,0.31616908 10.172684,3.4921506 15,7 13.109375,8.046875 13.109375,8.046875 11,9 9.25,8.25 9.25,8.25 7,7 5.6118128,6.6169581 4.2148385,6.2649623 2.8125,5.9375 -1,5 -1,5 -2,4 -3.3474708,3.7692492 -4.7037756,3.5884694 -6.0625,3.4375 -7.361875,3.293125 -8.66125,3.14875 -10,3 -10,2.67 -10,2.34 -10,2 -6.7,2 -3.4,2 0,2 0,1.34 0,0.68 0,0 Z"
       fill="#111111"
       transform="translate(416,119)"
       id="path73" />
    <path
       d="M 0,0 C 0.99,0.33 1.98,0.66 3,1 3,3.64 3,6.28 3,9 1.68,9 0.36,9 -1,9 -1.33,7.35 -1.66,5.7 -2,4 -3.65,4 -5.3,4 -7,4 -7.33,5.32 -7.66,6.64 -8,8 -8.33,7.01 -8.66,6.02 -9,5 -9.99,4.34 -10.98,3.68 -12,3 -8.2222853,-0.77771469 -5.0624395,-0.32142473 0,0 Z"
       fill="#45456b"
       transform="translate(504,247)"
       id="path74" />
    <path
       d="M 0,0 C 6.93,0 13.86,0 21,0 20.67,0.66 20.34,1.32 20,2 17.36,1.67 14.72,1.34 12,1 11.755078,1.7051172 11.510156,2.4102344 11.257813,3.1367188 9.8253247,6.3976304 8.0047813,8.9613412 5.875,11.8125 4.7883203,13.27623 4.7883203,13.27623 3.6796875,14.769531 2.8482422,15.873613 2.8482422,15.873613 2,17 0.68,16.67 -0.64,16.34 -2,16 -1.54625,15.401875 -1.0925,14.80375 -0.625,14.1875 0.63295913,12.494093 1.8298472,10.755229 3,9 3.66,9 4.32,9 5,9 5.33,7.02 5.66,5.04 6,3 6.99,3.33 7.98,3.66 9,4 9,3.34 9,2.68 9,2 6.03,1.67 3.06,1.34 0,1 0,0.67 0,0.34 0,0 Z"
       fill="#c99351"
       transform="translate(514,123)"
       id="path75" />
    <path
       d="M 0,0 C 2.475,0.99 2.475,0.99 5,2 5,7.28 5,12.56 5,18 4.34,17.34 3.68,16.68 3,16 3,15.01 3,14.02 3,13 0.36,12.67 -2.28,12.34 -5,12 -4.360625,11.505 -3.72125,11.01 -3.0625,10.5 -0.18484731,7.0119361 -0.29769264,4.4653896 0,0 Z"
       fill="#323362"
       transform="translate(393,252)"
       id="path76" />
    <path
       d="M 0,0 C 0.66,0.33 1.32,0.66 2,1 1.9651953,2.2645703 1.9303906,3.5291406 1.8945312,4.8320312 1.8663932,6.4921742 1.8390931,8.1523316 1.8125,9.8125 1.787363,10.645879 1.762227,11.479258 1.736328,12.337891 1.726658,13.140332 1.716992,13.942773 1.707031,14.769531 1.683465,15.877118 1.683465,15.877118 1.659424,17.00708 2.0932087,19.545421 3.159753,20.268193 5,22 c 0.6875,3.1875 0.6875,3.1875 1,6 1.32,0.33 2.64,0.66 4,1 0,0.99 0,1.98 0,3 C 5.0241985,30.045221 2.7806786,26.51767 0.39453125,21.878906 -1.3810157,17.625515 -1.3755613,13.676599 -1.25,9.125 -1.2448437,8.3541406 -1.2396875,7.5832812 -1.234375,6.7890625 -1.1550223,1.1550223 -1.1550223,1.1550223 0,0 Z"
       fill="#bd9943"
       transform="translate(368,142)"
       id="path77" />
    <path
       d="m 0,0 c 18.81,0.495 18.81,0.495 38,1 0.495,0.99 0.495,0.99 1,2 C 38.208274,2.99476 37.416548,2.989526 36.60083,2.984131 33.004728,2.963311 29.408639,2.950324 25.8125,2.9375 24.566621,2.92912 23.320742,2.920742 22.037109,2.912109 20.835059,2.908889 19.633008,2.905659 18.394531,2.902339 17.289563,2.897099 16.184595,2.891865 15.046143,2.88647 9.4495135,3.0191834 9.4495135,3.0191834 5,6 1.875,5.625 1.875,5.625 -1,5 -0.67,3.35 -0.34,1.7 0,0 Z"
       fill="#72931f"
       transform="translate(683,201)"
       id="path78" />
    <path
       d="m 0,0 c 3.5409881,-0.70534774 6.4898875,-0.94111711 10,0 3.103828,3.2702958 5.269742,6.8398856 7,11 -0.33,0.66 -0.66,1.32 -1,2 -0.99,-0.66 -1.98,-1.32 -3,-2 -0.66,1.32 -1.32,2.64 -2,4 C 9.8845572,11.653672 10.327828,10.360862 11,7 10.67,6.01 10.34,5.02 10,4 8.02,4.66 6.04,5.32 4,6 3.67,5.01 3.34,4.02 3,3 2.01,2.67 1.02,2.34 0,2 0,1.34 0,0.68 0,0 Z"
       fill="#48486c"
       transform="translate(684,248)"
       id="path79" />
    <path
       d="m 0,0 c 0.33,0 0.66,0 1,0 0,8.58 0,17.16 0,26 -7.59,0 -15.18,0 -23,0 0,-0.33 0,-0.66 0,-1 6.93,0 13.86,0 21,0 C -1.20625,23.288125 -1.4125,21.57625 -1.625,19.8125 -2.219684,12.977707 -1.308204,6.7031941 0,0 Z"
       fill="#51791b"
       transform="translate(471,198)"
       id="path80" />
    <path
       d="m 0,0 c 2.31,0 4.62,0 7,0 0,0.66 0,1.32 0,2 3.63,0 7.26,0 11,0 0,2.64 0,5.28 0,8 -1.65,0 -3.3,0 -5,0 C 14.32,9.67 15.64,9.34 17,9 17,7.02 17,5.04 17,3 10.565,3.495 10.565,3.495 4,4 3.67,9.94 3.34,15.88 3,22 2.67,22 2.34,22 2,22 2,15.73 2,9.46 2,3 -0.64,3.33 -3.28,3.66 -6,4 -6,3.34 -6,2.68 -6,2 -4.02,1.67 -2.04,1.34 0,1 0,0.67 0,0.34 0,0 Z"
       fill="#696a8b"
       transform="translate(402,250)"
       id="path82" />
    <path
       d="M 0,0 -1.3917549,6.8306174 4,7 -1,8 5,9 v 1 h -8 l -2,4 -3,-2 3,-10 1,4 c 3.12474627,-1.6347352 3.12474627,-1.6347352 3.6875,-4.125 z"
       fill="#565679"
       transform="translate(604,256)"
       id="path83" />
    <path
       d="M 0,0 C 0.66,0.33 1.32,0.66 2,1 3.7070274,1.06996 5.41668,1.084402 7.125,1.0625 8.0350781,1.05348 8.9451563,1.044453 9.8828125,1.035156 10.93082,1.0177539 10.93082,1.0177539 12,1 12.33,1.99 12.66,2.98 13,4 8.4936214,6.1630617 5.1087941,7.6966537 0,7 -1.875,5.5 -1.875,5.5 -3,4 -2.01,2.68 -1.02,1.36 0,0 Z"
       fill="#4f4f72"
       transform="translate(565,266)"
       id="path84" />
    <path
       d="m 0,0 c 0.99,0 1.98,0 3,0 0,4.62 0,9.24 0,14 -0.99,0 -1.98,0 -3,0 -0.66,0.66 -1.32,1.32 -2,2 C -2.054236,14.083648 -2.0929,12.166851 -2.125,10.25 -2.1482031,9.1826563 -2.1714063,8.1153125 -2.1953125,7.015625 -2.0048769,4.0752989 -1.526701,2.4763812 0,0 Z"
       fill="#2f3260"
       transform="translate(585,252)"
       id="path85" />
    <path
       d="M 0,0 C 2.475,0.495 2.475,0.495 5,1 5,1.99 5,2.98 5,4 6.32,4.66 7.64,5.32 9,6 8.01,6.495 8.01,6.495 7,7 7,7.66 7,8.32 7,9 7.66,9.66 8.32,10.32 9,11 6,12 6,12 2.8125,10.5625 0,8 0,8 -0.38671875,5.9492187 -0.375,3.75 -0.375,3.75 0,0 Z"
       fill="#44446b"
       transform="translate(491,251)"
       id="path86" />
    <path
       d="M 0,0 C -1.4323912,3.2102839 -3.2429395,5.5003616 -5.5625,8.125 -9.399257,12.909006 -10.088159,16.967415 -10,23 c -0.66,0 -1.32,0 -2,0 -0.194083,-4.852064 0.287216,-8.46616 2,-13 C -9.6577258,8.6689338 -9.3224826,7.3359992 -9,6 -8,3 -8,3 -5.625,1.3125 -3,0 -3,0 0,0 Z"
       fill="#85931f"
       transform="translate(481,185)"
       id="path87" />
    <path
       d="m 0,0 c 0.93423645,3.0103174 1.0444991,3.8665027 0,7 3.3,0 6.6,0 10,0 0,0.33 0,0.66 0,1 -2.64,0.33 -5.28,0.66 -8,1 -0.33,0.99 -0.66,1.98 -1,3 0.99,0 1.98,0 3,0 0,0.66 0,1.32 0,2 -3.3,0 -6.6,0 -10,0 0.66,-1.32 1.32,-2.64 2,-4 C -3.2761292,8.2563696 -2.5681805,6.5060572 -1.875,4.75 -1.5217969,3.8579688 -1.1685938,2.9659375 -0.8046875,2.046875 -0.53914063,1.3714062 -0.27359375,0.6959375 0,0 Z"
       fill="#545374"
       transform="translate(468,258)"
       id="path88" />
    <path
       d="M 0,0 C 1.6754298,0.28604898 3.3438534,0.61781233 5,1 5,3.97 5,6.94 5,10 3.35,10.66 1.7,11.32 0,12 -1,11 -1,11 -1.1328125,8.75 -1.1302344,7.8425 -1.1276562,6.935 -1.125,6 -1.1275781,5.0925 -1.1301562,4.185 -1.1328125,3.25 -1,1 -1,1 0,0 Z"
       fill="#373763"
       transform="translate(660,254)"
       id="path89" />
    <path
       d="M 0,0 C 3.96,0 7.92,0 12,0 11.67,0.66 11.34,1.32 11,2 10.01,1.67 9.02,1.34 8,1 8,1.99 8,2.98 8,4 7.01,4.33 6.02,4.66 5,5 3.844293,8.4671211 3.6716471,11.541496 3.4375,15.1875 3.3537109,16.459805 3.2699219,17.732109 3.1835938,19.042969 3.1230078,20.018789 3.0624219,20.994609 3,22 2.34,21.67 1.68,21.34 1,21 1.495,12.09 1.495,12.09 2,3 1.34,3 0.68,3 0,3 0,2.01 0,1.02 0,0 Z"
       fill="#5c5d7d"
       transform="translate(580,248)"
       id="path90" />
    <path
       d="M 0,0 C 0,0.66 0,1.32 0,2 -1.1575781,2.1095703 -2.3151562,2.2191406 -3.5078125,2.3320313 -5.0469386,2.4915748 -6.5859978,2.6517654 -8.125,2.8125 -8.8855469,2.8827539 -9.6460938,2.9530078 -10.429688,3.0253906 -15.254655,3.5453225 -18.662054,4.6991747 -23,7 -23.66,6.67 -24.32,6.34 -25,6 -17.88939,-1.6847592 -9.8072848,-1.3945444 0,0 Z"
       fill="#1d0e07"
       transform="translate(404,119)"
       id="path92" />
    <path
       d="m 0,0 c 0.33,0 0.66,0 1,0 0,5.94 0,11.88 0,18 -4,0 -4,0 -6,-1 0,-2.31 0,-4.62 0,-7 -1.65,0 -3.3,0 -5,0 0,-0.33 0,-0.66 0,-1 5.75,-0.125 5.75,-0.125 8,1 0.33,0.99 0.66,1.98 1,3 0.33,-4.29 0.66,-8.58 1,-13 z"
       fill="#616181"
       transform="translate(398,255)"
       id="path93" />
    <path
       d="m 0,0 c 7.59,0 15.18,0 23,0 0,0.33 0,0.66 0,1 C 21.963594,1.060586 20.927187,1.1211719 19.859375,1.1835937 18.489571,1.2680337 17.11978,1.35268 15.75,1.4375 14.727129,1.4964746 14.727129,1.4964746 13.683594,1.5566406 10.35552,1.7666647 7.197446,2.01934 4,3 4,4.65 4,6.3 4,8 2.68,8 1.36,8 0,8 0,5.36 0,2.72 0,0 Z"
       fill="#494a6b"
       transform="translate(620,248)"
       id="path94" />
    <path
       d="m 0,0 c 0.66,0.33 1.32,0.66 2,1 -0.99,1.32 -1.98,2.64 -3,4 0.33,0.66 0.66,1.32 1,2 -0.9375,2.625 -0.9375,2.625 -2,5 -0.33,-0.66 -0.66,-1.32 -1,-2 -0.61875,0.495 -1.2375,0.99 -1.875,1.5 C -7,13 -7,13 -9,13 c 0,-1.32 0,-2.64 0,-4 0.66,0 1.32,0 2,0 C -6.773125,8.2575 -6.54625,7.515 -6.3125,6.75 -4.7559247,3.4886041 -2.9148115,2.0710503 0,0 Z"
       fill="#c99935"
       transform="translate(488,143)"
       id="path95" />
    <path
       d="m 0,0 c 2.4375,1.125 2.4375,1.125 5,3 0.8125,3.1875 0.8125,3.1875 1,6 1.98,0 3.96,0 6,0 0.33,0.99 0.66,1.98 1,3 2.97,0.495 2.97,0.495 6,1 0,0.33 0,0.66 0,1 C 8.2693297,14.210405 8.2693297,14.210405 4.9804687,11.074219 4.3887891,10.286602 3.7971094,9.4989844 3.1875,8.6875 2.2806445,7.5176758 2.2806445,7.5176758 1.3554687,6.3242187 0,4 0,4 0,0 Z"
       fill="#608822"
       transform="translate(370,207)"
       id="path96" />
    <path
       d="m 0,0 c 0.33,0 0.66,0 1,0 0.149776,4.1073201 0.2578718,8.2135557 0.3295898,12.322998 0.029934,1.393837 0.070698,2.787489 0.1230469,4.180664 0.2984706,8.15527 0.146875,14.403298 -5.055664,21.074707 C -4.2945288,38.282076 -4.2945288,38.282076 -5,39 c -0.33,0 -0.66,0 -1,0 0.25,-3.3125 0.25,-3.3125 1,-7 0.6629004,-0.434172 1.3258008,-0.868345 2.0087891,-1.315674 2.30180975,-1.58516 2.30180975,-1.58516 2.53710934,-4.687012 0.0209473,-1.199231 0.0418945,-2.398461 0.0634766,-3.634033 0.0322266,-1.29873 0.0644531,-2.597461 0.0976563,-3.935547 0.0147446,-1.37174 0.0290621,-2.743485 0.0429687,-4.115234 0.0281588,-1.383501 0.0580861,-2.766967 0.0898438,-4.150391 C -0.08933891,6.7746798 -0.03669824,3.3879433 0,0 Z"
       fill="#151009"
       transform="translate(478,124)"
       id="path97" />
    <path
       d="m 0,0 c 0.66,0 1.32,0 2,0 0,5.28 0,10.56 0,16 -1.98,0 -3.96,0 -6,0 0.5758443,-2.385641 1.222276,-4.666828 2,-7 0.66,0 1.32,0 2,0 C 0,6.03 0,3.06 0,0 Z"
       fill="#31335f"
       transform="translate(705,256)"
       id="path98" />
    <path
       d="m 0,0 c 0,0.33 0,0.66 0,1 -1.65,0 -3.3,0 -5,0 0,0.66 0,1.32 0,2 1.32,0.33 2.64,0.66 4,1 -1.32,0.33 -2.64,0.66 -4,1 -0.66,3.3 -1.32,6.6 -2,10 -0.33,0 -0.66,0 -1,0 0,-2.31 0,-4.62 0,-7 -1.65,-0.33 -3.3,-0.66 -5,-1 2.337345,-6.16209265 6.7794075,-7.43399483 13,-7 z"
       fill="#494a72"
       transform="translate(673,247)"
       id="path99" />
    <path
       d="m 0,0 c 12.54,0 25.08,0 38,0 0,1.65 0,3.3 0,5 C 37.01,4.34 36.02,3.68 35,3 35,2.34 35,1.68 35,1 23.78,1.33 12.56,1.66 1,2 1,2.66 1,3.32 1,4 0.34,3.67 -0.32,3.34 -1,3 -0.67,2.01 -0.34,1.02 0,0 Z"
       fill="#71931c"
       transform="translate(609,202)"
       id="path100" />
    <path
       d="m 0,0 c 0.33,0 0.66,0 1,0 0,9.57 0,19.14 0,29 -1.32,-1.32 -2.64,-2.64 -4,-4 0.33,-0.66 0.66,-1.32 1,-2 0.8544528,-2.840085 1.10973769,-5.333724 1.0625,-8.292969 C -0.945234,13.912324 -0.9529688,13.117617 -0.9609375,12.298828 -0.97382813,11.47834 -0.98671875,10.657852 -1,9.8125 -1.0455942,6.8693973 -1.0472507,3.9443094 -1,1 -0.67,0.67 -0.34,0.34 0,0 Z"
       fill="#c0993d"
       transform="translate(470,137)"
       id="path101" />
    <path
       d="m 0,0 c 6.93,0 13.86,0 21,0 0,0.33 0,0.66 0,1 C 13.08,1.495 13.08,1.495 5,2 5.33,2.66 5.66,3.32 6,4 5.360625,4.165 4.72125,4.33 4.0625,4.5 1.8388076,5.781786 1.8388076,5.781786 1.5117187,7.9140625 1.2724022,9.9357516 1.1310697,11.968419 1,14 0.67,14 0.34,14 0,14 0,9.38 0,4.76 0,0 Z"
       fill="#e99e44"
       transform="translate(586,122)"
       id="path102" />
    <path
       d="M 0,0 C 7.59,0 15.18,0 23,0 22.67,0.99 22.34,1.98 22,3 21.01,2.67 20.02,2.34 19,2 16.771816,1.9306294 14.541655,1.9154292 12.3125,1.9375 11.133008,1.9465234 9.9535156,1.9555469 8.7382813,1.9648437 7.8346484,1.9764453 6.9310156,1.9880469 6,2 5.67,2.66 5.34,3.32 5,4 2.69,4 0.38,4 -2,4 -1.34,2.68 -0.68,1.36 0,0 Z"
       fill="#ef9d45"
       transform="translate(501,124)"
       id="path103" />
    <path
       d="m 0,0 c 0,0.33 0,0.66 0,1 -1.98,0 -3.96,0 -6,0 0,0.66 0,1.32 0,2 0.99,0.33 1.98,0.66 3,1 -1.32,0 -2.64,0 -4,0 -0.33,4.29 -0.66,8.58 -1,13 -0.33,0 -0.66,0 -1,0 C -9.33,13.37 -9.66,9.74 -10,6 -11.32,5.67 -12.64,5.34 -14,5 -8.8429038,0.79289518 -6.717928,-0.12440607 0,0 Z"
       fill="#6d6e8b"
       transform="translate(548,247)"
       id="path104" />
    <path
       d="M 0,0 C 2.125,4.625 2.125,4.625 1,8 0.34,8 -0.32,8 -1,8 -1.33,7.34 -1.66,6.68 -2,6 -2.99,7.485 -2.99,7.485 -4,9 -4.66,9 -5.32,9 -6,9 -6,6.69 -6,4.38 -6,2 -2.25,0 -2.25,0 0,0 Z"
       fill="#343465"
       transform="translate(694,252)"
       id="path106" />
    <path
       d="M 0,0 C 1.32,0 2.64,0 4,0 3.67,0.99 3.34,1.98 3,3 2.34,3 1.68,3 1,3 0.67,3.99 0.34,4.98 0,6 -5.0643571,9.5140437 -8.8844403,10.570838 -15,11 -11.320255,8.0493422 -7.4137848,6.23148 -3.1445313,4.28125 -0.67921594,3.1246736 -0.67921594,3.1246736 0,0 Z"
       fill="#57811d"
       transform="translate(424,212)"
       id="path107" />
    <path
       d="M 0,0 C 3.2221141,4.8331711 3.7022189,8.2454525 3,14 1.9079917,16.894537 0.56490849,19.310314 -1,22 -2.0056857,18.870419 -1.9398301,16.960567 -1.0625,13.8125 0.10497183,9.0956004 0.15389859,4.8478057 0,0 Z"
       fill="#bc3e47"
       transform="translate(569,85)"
       id="path108" />
    <path
       d="M 0,0 C 1.0209375,0.433125 1.0209375,0.433125 2.0625,0.875 10.059256,3.9375875 17.451579,4.5494591 26,5 26,5.33 26,5.66 26,6 25.252344,6.0605859 24.504687,6.1211719 23.734375,6.1835937 22.749531,6.2673828 21.764687,6.3511719 20.75,6.4375 19.288203,6.5593164 19.288203,6.5593164 17.796875,6.6835937 15.085859,6.88568 15.085859,6.88568 12.964844,7.7109375 9.9372643,8.1563468 8.3470587,6.7861065 5.8125,5.1875 4.9320703,4.6448047 4.0516406,4.1021094 3.1445313,3.5429688 1,2 1,2 0,0 Z"
       fill="#243319"
       transform="translate(378,219)"
       id="path109" />
    <path
       d="M 0,0 C 5.8016574,0.97458672 10.839827,2.0125315 16,5 14.047836,6.9521644 12.468,7.8482664 10,9 9.34,8.34 8.68,7.68 8,7 8.33,6.34 8.66,5.68 9,5 8.34,5 7.68,5 7,5 7,4.34 7,3.68 7,3 4.69,2.34 2.38,1.68 0,1 0,0.67 0,0.34 0,0 Z"
       fill="#a69433"
       transform="translate(400,159)"
       id="path110" />
    <path
       d="m 0,0 c 2.31,0 4.62,0 7,0 0,0.66 0,1.32 0,2 1.65,0 3.3,0 5,0 0,0.33 0,0.66 0,1 C 9.69,3.33 7.38,3.66 5,4 4.67,3.34 4.34,2.68 4,2 3.34,3.32 2.68,4.64 2,6 2,5.01 2,4.02 2,3 -4.6,3.33 -11.2,3.66 -18,4 -18,3.34 -18,2.68 -18,2 -12.06,1.67 -6.12,1.34 0,1 0,0.67 0,0.34 0,0 Z"
       fill="#6b6c8c"
       transform="translate(442,250)"
       id="path112" />
    <path
       d="M 0,0 C 0.33,0 0.66,0 1,0 2.4343858,7.5305252 3.4386951,16.683915 1,24 0.34,24 -0.32,24 -1,24 -1.1845102,7.1070615 -1.1845102,7.1070615 0,0 Z"
       fill="#c29c3e"
       transform="translate(586,136)"
       id="path113" />
    <path
       d="m 0,0 c 4.5663058,0.98865499 7.4434391,3.2657207 10.382813,6.7929687 0.37125,0.5775 0.7425,1.155 1.125,1.7500001 -0.99,0.4949999 -0.99,0.4949999 -2.0000005,1 0,-0.66 0,-1.32 0,-2.0000001 -0.99,-0.33 -1.98,-0.66 -3,-1 0,-0.66 0,-1.32 0,-2 C 2.7492388,3.7689397 -1.01845,3.1045738 -4.8046875,2.4804688 -5.8733203,2.3038672 -6.9419531,2.1272656 -8.0429688,1.9453125 -8.8512109,1.8125391 -9.6594531,1.6797656 -10.492188,1.5429687 -6.5927544,-1.0566533 -4.5076302,-0.55852561 0,0 Z"
       fill="#bc5057"
       transform="translate(557.49219,76.457031)"
       id="path114" />
    <path
       d="m 0,0 c 0,0.66 0,1.32 0,2 -7.59,0 -15.18,0 -23,0 0.33,-0.66 0.66,-1.32 1,-2 0.580078,0.02320313 1.160156,0.04640625 1.757813,0.0703125 C -16.421594,0.15857704 -13.510106,0.18363802 -9.875,-1.125 -6.0443783,-2.2908414 -3.6965017,-1.3307406 0,0 Z"
       fill="#4a4a6a"
       transform="translate(603,270)"
       id="path116" />
    <path
       d="m 0,0 c 0.94875,0.350625 1.8975,0.70125 2.875,1.0625 0,0.33 0,0.66 0,1 -2.31,0 -4.62,0 -7,0 0.33,1.0725 0.66,2.145 1,3.25 1,3.75 1,3.75 1,7.75 -0.99,0 -1.98,0 -3,0 -1.6875,-2.5 -1.6875,-2.5 -3,-5 0.66,0 1.32,0 2,0 0.12375,-1.299375 0.2475,-2.59875 0.375,-3.9375 0.2109375,-2.2148438 0.2109375,-2.2148438 0.625,-4.0625 2,-1 2,-1 5.125,-0.0625 z"
       fill="#525372"
       transform="translate(441.125,259.9375)"
       id="path117" />
    <path
       d="M 0,0 C 6.4175365,0.60542797 6.4175365,0.60542797 8.9375,2.3125 10,4 10,4 10,8 6.0132894,6.6331278 3.1150537,4.8480491 0,2 0,1.34 0,0.68 0,0 Z"
       fill="#17130c"
       transform="translate(420,164)"
       id="path118" />
    <path
       d="m 0,0 c 3.3,0 6.6,0 10,0 0,2.31 0,4.62 0,7 C 8.68,7 7.36,7 6,7 5.67,5.35 5.34,3.7 5,2 3.35,1.67 1.7,1.34 0,1 0,0.67 0,0.34 0,0 Z"
       fill="#3b3a60"
       transform="translate(519,248)"
       id="path119" />
    <path
       d="M 0,0 C 2.525887,2.3629266 3.8882084,3.6646251 5,7 4.34,7 3.68,7 3,7 3,7.66 3,8.32 3,9 2.34,9 1.68,9 1,9 0.896875,9.598125 0.79375,10.19625 0.6875,10.8125 -0.08876455,13.282433 -1.0708892,14.322512 -3,16 c -0.66,-0.66 -1.32,-1.32 -2,-2 0.6445313,-0.377695 1.2890625,-0.755391 1.953125,-1.144531 2.28717262,-1.716068 2.28717262,-1.716068 2.65625,-4.5546877 C -0.34421875,7.3146484 -0.2978125,6.3285156 -0.25,5.3125 -0.19328125,4.3186328 -0.1365625,3.3247656 -0.078125,2.3007813 -0.05234375,1.5415234 -0.0265625,0.78226563 0,0 Z"
       fill="#8c9e3d"
       transform="translate(410,188)"
       id="path120" />
    <path
       d="M 0,0 C 4.75,0.875 4.75,0.875 7,2 7.625,4.0625 7.625,4.0625 8,6 5.69,6.33 3.38,6.66 1,7 0.67,4.69 0.34,2.38 0,0 Z"
       fill="#363862"
       transform="translate(520,257)"
       id="path121" />
    <path
       d="M 0,0 C 0.99,0 1.98,0 3,0 3.33,4.29 3.66,8.58 4,13 3.34,13 2.68,13 2,13 -0.20914,9.68629 -0.22481553,8.6553979 -0.125,4.8125 -0.10695313,3.9114453 -0.08890625,3.0103906 -0.0703125,2.0820313 -0.04710937,1.3949609 -0.02390625,0.70789063 0,0 Z"
       fill="#171d0a"
       transform="translate(389,187)"
       id="path122" />
    <path
       d="M 0,0 C 2.97,0 5.94,0 9,0 9,0.33 9,0.66 9,1 7.35,1.33 5.7,1.66 4,2 3.855625,2.721875 3.71125,3.44375 3.5625,4.1875 3.0416667,6.7916667 2.5208333,9.3958333 2,12 1.34,12 0.68,12 0,12 0,8.04 0,4.08 0,0 Z"
       fill="#7f931d"
       transform="translate(366,187)"
       id="path123" />
    <path
       d="M 0,0 C 2,0 2,0 3.5625,1.125 5.4902602,3.6394698 5.6550511,5.8954597 6,9 c 1.32,0.33 2.64,0.66 4,1 0,0.99 0,1.98 0,3 C 6.173873,11.496879 4.2990803,9.3719845 2,6 0.75,2.6875 0.75,2.6875 0,0 Z"
       fill="#ada34f"
       transform="translate(368,161)"
       id="path124" />
    <path
       d="M 0,0 C 2.249403,-0.08119503 4.4996487,-0.13927819 6.75,-0.1875 8.0029688,-0.2223047 9.2559375,-0.2571094 10.546875,-0.29296875 14.141094,0.01197061 15.447251,0.54394629 18,3 16.02,3.99 16.02,3.99 14,5 13.448281,4.5088672 12.896563,4.0177344 12.328125,3.5117188 9.5362993,1.6989058 8.0381426,1.6827049 4.75,1.8125 3.4119531,1.8531055 3.4119531,1.8531055 2.046875,1.8945312 1.0336719,1.9467383 1.0336719,1.9467383 0,2 0,1.34 0,0.68 0,0 Z"
       fill="#ed9d47"
       transform="translate(395,122)"
       id="path126" />
    <path
       d="M 0,0 C 2.64,0.66 5.28,1.32 8,2 7.67,2.99 7.34,3.98 7,5 11.95,5 16.9,5 22,5 17.307227,7.3463866 14.13816,7.5798271 9,7 4.7738391,5.4347552 2.3821677,3.8379368 0,0 Z"
       fill="#b44346"
       transform="translate(539,106)"
       id="path127" />
    <path
       d="m 0,0 c 0,3.3 0,6.6 0,10 -0.33,0 -0.66,0 -1,0 0,-1.98 0,-3.96 0,-6 -1.32,0 -2.64,0 -4,0 -0.33,2.64 -0.66,5.28 -1,8 -0.33,0 -0.66,0 -1,0 C -7.25,4.375 -7.25,4.375 -5,1 -3.2876122,0.42920405 -1.8098732,0 0,0 Z"
       fill="#4e4e76"
       transform="translate(539,252)"
       id="path128" />
    <path
       d="M 0,0 C 2.2054011,2.2054011 3.2400727,4.2139474 4.625,7 5.0710156,7.886875 5.5170312,8.77375 5.9765625,9.6875 7,12 7,12 7,14 5.35,14 3.7,14 2,14 1.814375,12.422188 1.814375,12.422188 1.625,10.8125 1.1574642,7.0996356 1.1574642,7.0996356 -0.125,4.1875 -0.41375,3.465625 -0.7025,2.74375 -1,2 -0.67,1.34 -0.34,0.68 0,0 Z"
       fill="#527a1e"
       transform="translate(520,210)"
       id="path129" />
    <path
       d="m 0,0 c 3.3591492,2.2394328 3.8168164,3.2684208 5,7 0,0.99 0,1.98 0,3 0.66,0 1.32,0 2,0 0,2.31 0,4.62 0,7 C 5.14189,14.212835 3.7710265,11.53697 2.375,8.5 1.9289844,7.5409375 1.4829687,6.581875 1.0234375,5.59375 0,3 0,3 0,0 Z"
       fill="#6f912a"
       transform="translate(492,203)"
       id="path130" />
    <path
       d="M 0,0 C 0.66,0.33 1.32,0.66 2,1 1.34,2.98 0.68,4.96 0,7 0.66,7.66 1.32,8.32 2,9 -2.75,12 -2.75,12 -5,12 -3.8581427,7.5204058 -2.5698483,3.8547725 0,0 Z"
       fill="#d4a65a"
       transform="translate(372,131)"
       id="path131" />
    <path
       d="M 0,0 C 1.1630644,3.5495003 0.92365049,6.5582395 0.5625,10.25 0.40974609,11.866484 0.40974609,11.866484 0.25390625,13.515625 0.17011719,14.335469 0.08632813,15.155313 0,16 0.66,16 1.32,16 2,16 1.67,17.32 1.34,18.64 1,20 -2.1033476,16.896652 -1.9538294,13.84646 -2.1875,9.5625 -2.0003265,6.0062033 -1.2885617,3.3019393 0,0 Z"
       fill="#b9484f"
       transform="translate(537,85)"
       id="path132" />
    <path
       d="M 0,0 C 2.97,0 5.94,0 9,0 9,2.31 9,4.62 9,7 7.68,7 6.36,7 5,7 5,5.02 5,3.04 5,1 3.35,1 1.7,1 0,1 0,0.67 0,0.34 0,0 Z"
       fill="#3c3d61"
       transform="translate(634,249)"
       id="path133" />
    <path
       d="M 0,0 C 4.29,0.33 8.58,0.66 13,1 12.67,1.66 12.34,2.32 12,3 10.35,3 8.7,3 7,3 6.67,3.66 6.34,4.32 6,5 3.03,4.505 3.03,4.505 0,4 0,2.68 0,1.36 0,0 Z"
       fill="#6d950e"
       transform="translate(682,202)"
       id="path134" />
    <path
       d="M 0,0 C 0,0.66 0,1.32 0,2 0.66,2.33 1.32,2.66 2,3 2,4.65 2,6.3 2,8 1.01,8 0.02,8 -1,8 -1,7.34 -1,6.68 -1,6 -1.99,5.67 -2.98,5.34 -4,5 -4,3.68 -4,2.36 -4,1 -2,0 -2,0 0,0 Z"
       fill="#31335f"
       transform="translate(479,254)"
       id="path135" />
    <path
       d="M 0,0 C 0.33,0 0.66,0 1,0 1,5.28 1,10.56 1,16 0.34,16 -0.32,16 -1,16 -2.0836087,9.9317913 -1.7907473,5.8989324 0,0 Z"
       fill="#748e28"
       transform="translate(564,192)"
       id="path136" />
    <path
       d="M 0,0 C 0.33,0 0.66,0 1,0 1.0605859,0.68707031 1.1211719,1.3741406 1.1835937,2.0820313 1.2673828,2.9830859 1.3511719,3.8841406 1.4375,4.8125 1.5187109,5.7058203 1.5999219,6.5991406 1.6835937,7.5195312 1.9348977,10.127436 1.9348977,10.127436 3,13 3.99,12.67 4.98,12.34 6,12 6.33,12.99 6.66,13.98 7,15 3.6253729,14.452763 1.91765,13.9451 -1,12 -0.67,8.04 -0.34,4.08 0,0 Z"
       fill="#647625"
       transform="translate(388,187)"
       id="path137" />
    <path
       d="M 0,0 C 3.872633,5.0512604 4.1289914,8.32366 4.0625,14.625 4.05799,15.426797 4.05348,16.228594 4.048828,17.054687 4.0370317,19.03649 4.019096,21.018254 4,23 3.67,23 3.34,23 3,23 2.9265234,21.553672 2.9265234,21.553672 2.8515625,20.078125 2.7767969,18.814844 2.7020313,17.551562 2.625,16.25 2.5553906,14.997031 2.4857813,13.744063 2.4140625,12.453125 2.0395795,9.3300782 1.5050675,7.6702811 0,5 -0.125,2.25 -0.125,2.25 0,0 Z"
       fill="#7c842d"
       transform="translate(430,175)"
       id="path138" />
    <path
       d="M 0,0 C 0.66,0.99 1.32,1.98 2,3 4.5628274,3.7296537 4.5628274,3.7296537 7,4 6.01,4.33 5.02,4.66 4,5 4,5.66 4,6.32 4,7 5.32,7.33 6.64,7.66 8,8 1.25,8.125 1.25,8.125 -1,7 -0.67,4.69 -0.34,2.38 0,0 Z"
       fill="#504f6f"
       transform="translate(540,265)"
       id="path139" />
    <path
       d="M 0,0 C 0.66,0.99 1.32,1.98 2,3 1.5191797,3.5517188 1.0383594,4.1034375 0.54296875,4.671875 -1.2395416,7.3614349 -1.4775141,9.0582142 -1.6875,12.25 -1.786113,13.588047 -1.786113,13.588047 -1.8867187,14.953125 -1.942793,15.966328 -1.942793,15.966328 -2,17 -2.66,17 -3.32,17 -4,17 -4.2595638,10.510905 -3.0636276,5.6895941 0,0 Z"
       fill="#738d23"
       transform="translate(473,191)"
       id="path141" />
    <path
       d="M 0,0 C 0.99,0 1.98,0 3,0 3,1.98 3,3.96 3,6 2.34,5.690625 1.68,5.38125 1,5.0625 -2.7047601,3.7503975 -6.0926399,3.3973587 -10,3 -10,2.67 -10,2.34 -10,2 -6.7,2 -3.4,2 0,2 0,1.34 0,0.68 0,0 Z"
       fill="#241007"
       transform="translate(416,119)"
       id="path142" />
    <path
       d="M 0,0 C 1.65,0.33 3.3,0.66 5,1 4.67,2.32 4.34,3.64 4,5 2.68,5.33 1.36,5.66 0,6 -0.99,4.68 -1.98,3.36 -3,2 -2.01,1.67 -1.02,1.34 0,1 0,0.67 0,0.34 0,0 Z"
       fill="#4d4d6e"
       transform="translate(424,268)"
       id="path143" />
    <path
       d="M 0,0 C 0.99,0.99 1.98,1.98 3,3 2.34,5.31 1.68,7.62 1,10 0.34,9.67 -0.32,9.34 -1,9 -1.66,10.32 -2.32,11.64 -3,13 -3.1875,9.625 -3.1875,9.625 -3,6 -2.01,5.34 -1.02,4.68 0,4 0,2.68 0,1.36 0,0 Z"
       fill="#44466d"
       transform="translate(679,251)"
       id="path144" />
    <path
       d="M 0,0 C 2.475,0.495 2.475,0.495 5,1 5,2.65 5,4.3 5,6 4.01,6.33 3.02,6.66 2,7 1.34,6.67 0.68,6.34 0,6 0,4.02 0,2.04 0,0 Z"
       fill="#33355f"
       transform="translate(491,251)"
       id="path145" />
    <path
       d="m 0,0 c 0,0.33 0,0.66 0,1 -2.31,0 -4.62,0 -7,0 0,0.66 0,1.32 0,2 1.65,0 3.3,0 5,0 0,0.33 0,0.66 0,1 C -3.65,4 -5.3,4 -7,4 -7.33,5.32 -7.66,6.64 -8,8 -8.33,7.01 -8.66,6.02 -9,5 -9.99,4.34 -10.98,3.68 -12,3 -8.2391768,-0.7608232 -5.0273023,-0.25136512 0,0 Z"
       fill="#6d6e8b"
       transform="translate(504,247)"
       id="path146" />
    <path
       d="M 0,0 C 0,0.66 0,1.32 0,2 0.99,2.33 1.98,2.66 3,3 2.3361328,3.1211719 1.6722656,3.2423437 0.98828125,3.3671875 -3.5342446,4.2254771 -7.7993852,5.0397131 -12,7 -9.1793531,2.4556244 -5.4112268,0 0,0 Z"
       fill="#412e1d"
       transform="translate(391,119)"
       id="path148" />
    <path
       d="M 0,0 C 0.4125,0.61875 0.825,1.2375 1.25,1.875 3.0557388,4.0676828 4.4090534,4.9278842 7,6 6.01,6.33 5.02,6.66 4,7 5.32,7.66 6.64,8.32 8,9 4.625,9.125 4.625,9.125 1,9 0.34,8.34 -0.32,7.68 -1,7 -0.34,7 0.32,7 1,7 0.67,4.69 0.34,2.38 0,0 Z"
       fill="#5c5c7a"
       transform="translate(666,264)"
       id="path150" />
    <path
       d="M 0,0 C 0.93423645,3.0103174 1.0444991,3.8665027 0,7 1.98,7 3.96,7 6,7 6,7.33 6,7.66 6,8 3.03,8 0.06,8 -3,8 -2.7443868,5.6568787 -2.4072923,3.321566 -2,1 -1.34,0.67 -0.68,0.34 0,0 Z"
       fill="#34325d"
       transform="translate(471,257)"
       id="path151" />
    <path
       d="M 0,0 C 2,1 2,1 2.75,2.9375 2.8325,3.618125 2.915,4.29875 3,5 2.34,5.66 1.68,6.32 1,7 0.54188325,8.9723533 0.54188325,8.9723533 0.375,11.125 0.25125,12.40375 0.1275,13.6825 0,15 -0.33,15 -0.66,15 -1,15 -1.0268541,12.687562 -1.0463284,10.375037 -1.0625,8.0625 -1.0741016,6.7747266 -1.0857031,5.4869531 -1.0976562,4.1601562 -1,1 -1,1 0,0 Z"
       fill="#3e3e6c"
       transform="translate(445,257)"
       id="path152" />
    <path
       d="M 0,0 C 1.5,1.0625 1.5,1.0625 3,3 3.1875,6.6875 3.1875,6.6875 3,10 2.67,9.01 2.34,8.02 2,7 1.34,7 0.68,7 0,7 0,7.66 0,8.32 0,9 -0.66,8.67 -1.32,8.34 -2,8 -1.34,5.36 -0.68,2.72 0,0 Z"
       fill="#43436a"
       transform="translate(385,250)"
       id="path154" />
    <path
       d="M 0,0 C 1.32,0.33 2.64,0.66 4,1 2.35,3.64 0.7,6.28 -1,9 -1.99,8.67 -2.98,8.34 -4,8 -3,6 -3,6 -1,4 -0.3574765,1.9312597 -0.3574765,1.9312597 0,0 Z"
       fill="#a88e39"
       transform="translate(500,155)"
       id="path157" />
    <path
       d="M 0,0 C 0.66666667,2.6666667 1.3333333,5.3333333 2,8 -0.31,8 -2.62,8 -5,8 -2.25,2.25 -2.25,2.25 0,0 Z"
       fill="#d6a659"
       transform="translate(491,136)"
       id="path158" />
    <path
       d="M 0,0 C 2.31,0.33 4.62,0.66 7,1 4.1283543,3.7027253 2.6900816,4.9479184 -1.3125,5.25 -2.199375,5.1675 -3.08625,5.085 -4,5 -4.33,4.34 -4.66,3.68 -5,3 -4.360625,2.87625 -3.72125,2.7525 -3.0625,2.625 -2.0415625,2.315625 -2.0415625,2.315625 -1,2 -0.67,1.34 -0.34,0.68 0,0 Z"
       fill="#3e3f64"
       transform="translate(674,267)"
       id="path160" />
    <path
       d="M 0,0 C 0.66,0 1.32,0 2,0 2,0.66 2,1.32 2,2 2.99,2 3.98,2 5,2 4.67,3.65 4.34,5.3 4,7 3.34,7 2.68,7 2,7 1.67,6.34 1.34,5.68 1,5 -2.0293449,4.3422757 -2.0293449,4.3422757 -5,4 -5,3.67 -5,3.34 -5,3 -3.02,3 -1.04,3 1,3 0.67,2.01 0.34,1.02 0,0 Z"
       fill="#393965"
       transform="translate(476,260)"
       id="path161" />
    <path
       d="M 0,0 C 0.33,1.32 0.66,2.64 1,4 0.01,3.67 -0.98,3.34 -2,3 -4.5663486,2.772815 -7.1167811,2.5839182 -9.6875,2.4375 -10.389395,2.3943164 -11.091289,2.3511328 -11.814453,2.3066406 -13.542752,2.2008264 -15.271351,2.0999342 -17,2 c 0,-0.33 0,-0.66 0,-1 5.706906,-0.99250545 11.2140849,-1.10477512 17,-1 z"
       fill="#cf9a3e"
       transform="translate(408,140)"
       id="path162" />
    <path
       d="M 0,0 C 2,3 2,3 1.6875,5.5625 1,8 1,8 0,10 0.66,10.33 1.32,10.66 2,11 1.34,11.66 0.68,12.32 0,13 -1.1830673,10.633865 -1.1335461,9.1321926 -1.125,6.5 -1.1275781,5.7059375 -1.1301562,4.911875 -1.1328125,4.09375 -1,2 -1,2 0,0 Z"
       fill="#55567a"
       transform="translate(558,254)"
       id="path163" />
    <path
       d="M 0,0 C 0.66,0.33 1.32,0.66 2,1 0.95833333,2.7578125 -0.08333333,4.515625 -1.125,6.2734375 -2.1506835,7.9747267 -2.1506835,7.9747267 -2,10 -3.32,9.67 -4.64,9.34 -6,9 c 0.33,-1.32 0.66,-2.64 1,-4 0.99,0 1.98,0 3,0 0.66,-1.65 1.32,-3.3 2,-5 z"
       fill="#df9b38"
       transform="translate(377,129)"
       id="path164" />
    <path
       d="M 0,0 C 4.3139223,0.4793247 6.1656955,1.7457985 9,5 8.236875,4.814375 7.47375,4.62875 6.6875,4.4375 3.9103262,3.7718083 3.9103262,3.7718083 1,5 0.67,3.35 0.34,1.7 0,0 Z"
       fill="#ae9434"
       transform="translate(390,154)"
       id="path167" />
    <path
       d="M 0,0 C 0.33,0.99 0.66,1.98 1,3 -0.43359375,5.2617187 -0.43359375,5.2617187 -2.4375,7.6875 -3.0962109,8.4957422 -3.7549219,9.3039844 -4.4335937,10.136719 -4.9505078,10.751602 -5.4674219,11.366484 -6,12 -6.66,11.67 -7.32,11.34 -8,11 -5.36,7.37 -2.72,3.74 0,0 Z"
       fill="#291404"
       transform="translate(525,126)"
       id="path168" />
    <path
       d="M 0,0 C 0.66,0.33 1.32,0.66 2,1 2,3.64 2,6.28 2,9 1.01,8.67 0.02,8.34 -1,8 -1.33,6.02 -1.66,4.04 -2,2 -1.34,2 -0.68,2 0,2 0,1.34 0,0.68 0,0 Z"
       fill="#303263"
       transform="translate(434,260)"
       id="path169" />
    <path
       d="m 0,0 c 0,0.33 0,0.66 0,1 -1.65,0 -3.3,0 -5,0 0,0.66 0,1.32 0,2 1.32,0.33 2.64,0.66 4,1 C -1.61875,4.103125 -2.2375,4.20625 -2.875,4.3125 -5.3652648,4.8752537 -5.3652648,4.8752537 -7,8 -7,6.35 -7,4.7 -7,3 -7.66,2.67 -8.32,2.34 -9,2 -5.5647952,-0.29013653 -4.014669,-0.17842973 0,0 Z"
       fill="#696987"
       transform="translate(673,247)"
       id="path171" />
    <path
       d="M 0,0 C 2,3 2,3 2,6 1.34,6 0.68,6 0,6 -0.66,7.32 -1.32,8.64 -2,10 -2.33,10 -2.66,10 -3,10 -3.3662941,5.7265691 -2.4081408,3.511872 0,0 Z"
       fill="#709312"
       transform="translate(411,197)"
       id="path172" />
    <path
       d="M 0,0 C 0.61875,0.66 1.2375,1.32 1.875,2 3.7563743,4.2284549 3.7563743,4.2284549 6,4 5.67,5.32 5.34,6.64 5,8 2.0067574,6.9024777 1.153891,6.3231711 -0.25,3.375 -0.4975,2.59125 -0.745,1.8075 -1,1 -0.67,0.67 -0.34,0.34 0,0 Z"
       fill="#424266"
       transform="translate(534,263)"
       id="path173" />
    <path
       d="M 0,0 C 0.598125,0.45375 1.19625,0.9075 1.8125,1.375 3.5059065,2.6329591 5.2447709,3.8298472 7,5 4.25,5.75 4.25,5.75 1,6 -1.375,4.0625 -1.375,4.0625 -3,2 -2.01,2 -1.02,2 0,2 0,1.34 0,0.68 0,0 Z"
       fill="#2f251c"
       transform="translate(395,151)"
       id="path174" />
    <path
       d="m 0,0 c 0.66,0.33 1.32,0.66 2,1 -1.35021826,4.4188961 -3.2611567,6.3434534 -7,9 0,-1.32 0,-2.64 0,-4 0.66,0 1.32,0 2,0 C -2.690625,5.195625 -2.38125,4.39125 -2.0625,3.5625 -1,1 -1,1 0,0 Z"
       fill="#bf9c50"
       transform="translate(484,146)"
       id="path175" />
    <path
       d="M 0,0 C 0.33,1.65 0.66,3.3 1,5 0.01,5.495 0.01,5.495 -1,6 -1,5.34 -1,4.68 -1,4 -1.99,3.67 -2.98,3.34 -4,3 -4.33,3.33 -4.66,3.66 -5,4 -5.33,3.01 -5.66,2.02 -6,1 -3,0 -3,0 0,0 Z"
       fill="#5c5c79"
       transform="translate(609,247)"
       id="path176" />
    <path
       d="m 0,0 c 1.6396875,0.0928125 1.6396875,0.0928125 3.3125,0.1875 -1.98,0.99 -1.98,0.99 -4,2 0.99,0.66 1.98,1.32 3,2 -2.97,-0.33 -5.94,-0.66 -9,-1 3,-3 3,-3 6.6875,-3.1875 z"
       fill="#70708e"
       transform="translate(521.6875,246.8125)"
       id="path177" />
    <path
       d="M 0,0 C 1.6049557,0.11442461 3.2089812,0.24194694 4.8125,0.375 5.7058203,0.44460937 6.5991406,0.51421875 7.5195312,0.5859375 10,1 10,1 13,3 8.0239837,4.7105056 4.573837,3.0088565 0,1 0,0.67 0,0.34 0,0 Z"
       fill="#a6a556"
       transform="translate(384,178)"
       id="path178" />
    <path
       d="M 0,0 C 2.1875,-0.375 2.1875,-0.375 5,0 6.9902284,1.8396165 8.389899,3.7918615 10,6 9.01,6.495 9.01,6.495 8,7 8,6.34 8,5.68 8,5 7.01,4.67 6.02,4.34 5,4 5,3.34 5,2.68 5,2 3.35,1.67 1.7,1.34 0,1 0,0.67 0,0.34 0,0 Z"
       fill="#b6353d"
       transform="translate(559,79)"
       id="path179" />
    <path
       d="m 0,0 c 0.33,0.66 0.66,1.32 1,2 -1.98,0.99 -1.98,0.99 -4,2 0,0.99 0,1.98 0,3 C -3.99,7.33 -4.98,7.66 -6,8 -6.66,7.34 -7.32,6.68 -8,6 -3.375,1.125 -3.375,1.125 0,0 Z"
       fill="#ba3a44"
       transform="translate(546,78)"
       id="path180" />
    <path
       d="M 0,0 C 0.66,0.33 1.32,0.66 2,1 1.67,2.32 1.34,3.64 1,5 -0.98,5 -2.96,5 -5,5 -5,4.34 -5,3.68 -5,3 -3.35,2.67 -1.7,2.34 0,2 0,1.34 0,0.68 0,0 Z"
       fill="#34345e"
       transform="translate(549,267)"
       id="path181" />
    <path
       d="M 0,0 C 1.32,0.99 2.64,1.98 4,3 3.34,4.65 2.68,6.3 2,8 0.68,7.34 -0.64,6.68 -2,6 -1.34,4.02 -0.68,2.04 0,0 Z"
       fill="#4e4f72"
       transform="translate(471,252)"
       id="path183" />
    <path
       d="M 0,0 C 0.77321882,2.9824155 1.411962,5.9758047 2,9 1.34,9 0.68,9 0,9 -3,3.25 -3,3.25 -3,1 -2.01,0.67 -1.02,0.34 0,0 Z"
       fill="#80932b"
       transform="translate(490,193)"
       id="path184" />
    <path
       d="M 0,0 C 1.32,0 2.64,0 4,0 4.66,0.66 5.32,1.32 6,2 6.66,2 7.32,2 8,2 7.67,2.99 7.34,3.98 7,5 4.1142418,4.6019644 3.1781049,4.2099093 1.25,1.9375 0.8375,1.298125 0.425,0.65875 0,0 Z"
       fill="#474767"
       transform="translate(380,264)"
       id="path185" />
    <path
       d="M 0,0 C 0.33,0 0.66,0 1,0 1,2.64 1,5.28 1,8 1.66,8 2.32,8 3,8 2.67,8.99 2.34,9.98 2,11 0.68,11.33 -0.64,11.66 -2,12 -1.34,8.04 -0.68,4.08 0,0 Z"
       fill="#656489"
       transform="translate(549,257)"
       id="path186" />
    <path
       d="M 0,0 C 0.99,0.33 1.98,0.66 3,1 2.67,3.31 2.34,5.62 2,8 0.4375,6.8125 0.4375,6.8125 -1,5 -0.6875,2.3125 -0.6875,2.3125 0,0 Z"
       fill="#373661"
       transform="translate(378,249)"
       id="path187" />
    <path
       d="M 0,0 C 0.33,0 0.66,0 1,0 1.33,2.31 1.66,4.62 2,7 1.34,7 0.68,7 0,7 -0.66,7.99 -1.32,8.98 -2,10 -2.25,3.375 -2.25,3.375 0,0 Z"
       fill="#c29930"
       transform="translate(388,147)"
       id="path188" />
    <path
       d="M 0,0 C 0,3.694182 -1.2817929,5.7783618 -3,9 -3.66,9 -4.32,9 -5,9 -3.9093133,5.2245461 -3.0916909,2.5295653 0,0 Z"
       fill="#bf904f"
       transform="translate(378,125)"
       id="path189" />
    <path
       d="m 0,0 c -2.9718094,1.898656 -5.5146008,3.3545557 -9,4 0,-0.99 0,-1.98 0,-3 5.625,-2.125 5.625,-2.125 9,-1 z"
       fill="#eb9d40"
       transform="translate(393,124)"
       id="path190" />
    <path
       d="M 0,0 C 3.6029659,-0.41176754 4.7840207,-0.1535853 7.8125,2 8.534375,2.66 9.25625,3.32 10,4 5.6690504,4 3.7296514,3.0343553 0,1 0,0.67 0,0.34 0,0 Z"
       fill="#c68b4a"
       transform="translate(409,122)"
       id="path191" />
    <path
       d="M 0,0 C 0.66,0.33 1.32,0.66 2,1 2,1.66 2,2.32 2,3 -0.31,3.66 -2.62,4.32 -5,5 -5.33,4.01 -5.66,3.02 -6,2 -4.02,2 -2.04,2 0,2 0,1.34 0,0.68 0,0 Z"
       fill="#454564"
       transform="translate(576,267)"
       id="path192" />
    <path
       d="m 0,0 c 0.33,0.99 0.66,1.98 1,3 -2.3333333,4.6666667 -2.3333333,4.6666667 -5,6 0,-0.99 0,-1.98 0,-3 0.66,0 1.32,0 2,0 C -1.855625,5.195625 -1.71125,4.39125 -1.5625,3.5625 -1,1 -1,1 0,0 Z"
       fill="#4a4b6c"
       transform="translate(555,262)"
       id="path193" />
    <path
       d="M 0,0 C 2.97,0 5.94,0 9,0 9,0.33 9,0.66 9,1 6,2 3,3 0,4 0,2.68 0,1.36 0,0 Z"
       fill="#899718"
       transform="translate(366,187)"
       id="path194" />
    <path
       d="M 0,0 C 2.6950482,2.6950482 5,6.0836048 5,10 2,9 2,9 0.8125,6.6875 0,4 0,4 0,0 Z"
       fill="#757c27"
       transform="translate(505,180)"
       id="path195" />
    <path
       d="M 0,0 C 2.64,0 5.28,0 8,0 8.66,1.32 9.32,2.64 10,4 6.7,3.01 3.4,2.02 0,1 0,0.67 0,0.34 0,0 Z"
       fill="#a0a354"
       transform="translate(395,182)"
       id="path196" />
    <path
       d="M 0,0 C -0.33,1.98 -0.66,3.96 -1,6 -1.66,5.34 -2.32,4.68 -3,4 -3.33,5.65 -3.66,7.3 -4,9 -4.33,9 -4.66,9 -5,9 -5.3666667,3.5 -5.3666667,3.5 -3.625,1.125 -2,0 -2,0 0,0 Z"
       fill="#4d3b1c"
       transform="translate(395,143)"
       id="path197" />
    <path
       d="M 0,0 C 3.63,0 7.26,0 11,0 6.8947368,2.7368421 6.8947368,2.7368421 4,3 2.68,2.01 1.36,1.02 0,0 Z"
       fill="#323265"
       transform="translate(416,250)"
       id="path198" />
    <path
       d="M 0,0 C 0.99,0 1.98,0 3,0 2.67,2.31 2.34,4.62 2,7 1.34,7 0.68,7 0,7 0,4.69 0,2.38 0,0 Z"
       fill="#090b02"
       transform="translate(389,187)"
       id="path199" />
    <path
       d="M 0,0 C 1.32,0.33 2.64,0.66 4,1 4,2.98 4,4.96 4,7 3.67,6.01 3.34,5.02 3,4 2.01,3.67 1.02,3.34 0,3 0,2.01 0,1.02 0,0 Z"
       fill="#869325"
       transform="translate(384,187)"
       id="path200" />
    <path
       d="M 0,0 C 0.99,0 1.98,0 3,0 1.7070031,2.8843778 0.34058637,4.8721942 -2,7 -1.125,1.125 -1.125,1.125 0,0 Z"
       fill="#7e852e"
       transform="translate(478,185)"
       id="path201" />
  </g>
</svg>
